<svg width="22" height="20" viewBox="0 0 22 20" fill="none" xmlns="http://www.w3.org/2000/svg">
<path d="M21.8359 9.3175C21.0311 7.7175 17.875 2.5 11 2.5C4.125 2.5 0.968921 7.7175 0.164087 9.3175C0.0560475 9.53192 0.00012207 9.76499 0.00012207 10.0008C0.00012207 10.2367 0.0560475 10.4697 0.164087 10.6842C0.968921 12.2825 4.125 17.5 11 17.5C17.875 17.5 21.0311 12.2825 21.8359 10.6825C21.9437 10.4683 21.9996 10.2355 21.9996 10C21.9996 9.76446 21.9437 9.53168 21.8359 9.3175ZM11 15C9.91221 15 8.84884 14.7068 7.94437 14.1573C7.0399 13.6079 6.33495 12.827 5.91867 11.9134C5.50238 10.9998 5.39347 9.99445 5.60569 9.02455C5.8179 8.05464 6.34173 7.16373 7.11092 6.46447C7.88011 5.7652 8.86011 5.289 9.92701 5.09607C10.9939 4.90315 12.0998 5.00216 13.1048 5.3806C14.1098 5.75904 14.9687 6.3999 15.5731 7.22215C16.1774 8.04439 16.5 9.01109 16.5 10C16.4985 11.3257 15.9186 12.5967 14.8875 13.5341C13.8563 14.4715 12.4582 14.9987 11 15Z" fill="black"/>
<path d="M11 13.3332C13.0251 13.3332 14.6667 11.8408 14.6667 9.99984C14.6667 8.15889 13.0251 6.6665 11 6.6665C8.975 6.6665 7.33337 8.15889 7.33337 9.99984C7.33337 11.8408 8.975 13.3332 11 13.3332Z" fill="black"/>
</svg>
