<svg width="22" height="22" viewBox="0 0 22 22" fill="none" xmlns="http://www.w3.org/2000/svg">
<path d="M21.8359 10.4201C20.9503 8.46321 19.6531 6.72865 18.0363 5.33935L20.8157 2.50756L19.5186 1.18506L16.5 4.25781C14.8293 3.27315 12.9301 2.76262 11 2.77934C4.125 2.77934 0.968921 8.62692 0.164087 10.4201C0.0560475 10.6604 0.00012207 10.9217 0.00012207 11.186C0.00012207 11.4503 0.0560475 11.7115 0.164087 11.9518C1.04971 13.9088 2.34687 15.6433 3.96367 17.0326L1.18525 19.8644L2.48142 21.1851L5.5 18.1123C7.17075 19.097 9.06995 19.6075 11 19.5908C17.875 19.5908 21.0311 13.7432 21.8359 11.95C21.9437 11.7099 21.9996 11.449 21.9996 11.1851C21.9996 10.9211 21.9437 10.6602 21.8359 10.4201ZM1.83334 11.1953C2.52084 9.65895 5.21859 4.64728 11 4.64728C12.4388 4.63871 13.8588 4.98071 15.1415 5.64476L13.5236 7.29321C12.6435 6.6979 11.5884 6.43116 10.5373 6.53823C9.48618 6.64531 8.5038 7.11962 7.75684 7.88068C7.00988 8.64174 6.54436 9.64266 6.43926 10.7136C6.33417 11.7846 6.59597 12.8596 7.18025 13.7563L5.2745 15.698C3.80818 14.4814 2.63164 12.9419 1.83334 11.1953ZM13.75 11.1851C13.75 11.9282 13.4603 12.6408 12.9445 13.1663C12.4288 13.6918 11.7293 13.987 11 13.987C10.5916 13.9854 10.1889 13.8896 9.82209 13.7068L13.475 9.98491C13.6544 10.3587 13.7484 10.769 13.75 11.1851ZM8.25 11.1851C8.25 10.4419 8.53973 9.72927 9.05546 9.20381C9.57119 8.67835 10.2707 8.38315 11 8.38315C11.4084 8.38476 11.8111 8.48056 12.1779 8.66334L8.525 12.3852C8.3456 12.0114 8.25159 11.6011 8.25 11.1851ZM11 17.7228C9.56121 17.7314 8.14125 17.3894 6.8585 16.7254L8.47642 15.0769C9.35648 15.6722 10.4116 15.939 11.4627 15.8319C12.5138 15.7248 13.4962 15.2505 14.2432 14.4894C14.9901 13.7284 15.4556 12.7275 15.5607 11.6565C15.6658 10.5855 15.404 9.51052 14.8198 8.61384L16.7246 6.67306C18.1938 7.89078 19.371 9.43392 20.1667 11.1851C19.4663 12.7326 16.7677 17.7228 11 17.7228Z" fill="#133115"/>
</svg>
