<svg width="9" height="9" viewBox="0 0 9 9" fill="none" xmlns="http://www.w3.org/2000/svg">
<g clip-path="url(#clip0_196_131)">
<path d="M3.06136 2.99975C2.84408 2.99666 2.63468 2.91789 2.46924 2.777C2.12378 2.46023 1.9145 2.02192 1.88536 1.55412C1.79424 0.618875 2.30424 0.0676248 2.85511 0.00612484C2.98785 -0.00867782 3.12221 0.00341753 3.25016 0.0416888C3.37812 0.07996 3.49705 0.143622 3.59986 0.228875C3.75334 0.367161 3.87794 0.53444 3.9665 0.72108C4.05505 0.907721 4.10582 1.11004 4.11586 1.31637C4.19986 2.1875 3.73561 2.99975 3.06136 2.99975ZM1.06974 5.24975C0.870194 5.24519 0.679681 5.16566 0.536114 5.027C0.218673 4.69649 0.0321036 4.26191 0.0111138 3.80413C-0.0713862 2.86888 0.388364 2.31763 0.885239 2.25613C1.00636 2.24229 1.12904 2.25505 1.24472 2.29352C1.3604 2.332 1.46628 2.39525 1.55499 2.47888C1.84028 2.77067 2.00626 3.15853 2.02036 3.56637C2.09574 4.4375 1.63449 5.24975 1.06974 5.24975ZM5.93836 2.99975C5.25961 2.99975 4.80061 2.1875 4.88574 1.31525C4.89578 1.10891 4.94655 0.906596 5.03511 0.719955C5.12366 0.533315 5.24827 0.366036 5.40174 0.22775C5.50444 0.14299 5.62311 0.079702 5.75071 0.0416335C5.87831 0.00356501 6.01226 -0.00850957 6.14461 0.00612484C6.69549 0.0676248 7.20549 0.618875 7.11436 1.55412C7.0852 2.02203 6.87594 2.46044 6.53049 2.77737C6.36493 2.91802 6.15557 2.99664 5.93836 2.99975ZM7.89474 5.24975C7.18749 5.24975 6.83461 4.4375 6.91411 3.56525C6.92988 3.1548 7.1017 2.76584 7.39449 2.47775C7.48738 2.3935 7.59719 2.33005 7.71657 2.29164C7.83594 2.25323 7.96215 2.24074 8.08674 2.255C8.59974 2.3165 9.07486 2.86775 8.99011 3.803C8.96629 4.26402 8.77243 4.69984 8.44599 5.02625C8.29584 5.16579 8.09967 5.24533 7.89474 5.24975ZM5.99986 8.99975C5.67937 9.00606 5.36287 8.9278 5.08224 8.77288C4.90269 8.67829 4.7028 8.62886 4.49986 8.62886C4.29692 8.62886 4.09704 8.67829 3.91749 8.77288C2.78761 9.4055 1.47061 8.70988 1.49986 7.12475C1.49986 5.38625 3.18999 3.74975 4.49986 3.74975C5.80974 3.74975 7.49986 5.38625 7.49986 7.12475C7.49986 8.22875 6.88299 8.99975 5.99986 8.99975Z" fill="black"/>
</g>
<defs>
<clipPath id="clip0_196_131">
<rect width="9" height="9" fill="white"/>
</clipPath>
</defs>
</svg>
