<svg width="154" height="40" viewBox="0 0 154 40" fill="none" xmlns="http://www.w3.org/2000/svg">
<path d="M76.7967 0.118858C72.102 0.931484 68.6744 4.5883 67.6821 9.83911C67.2241 12.2848 67.1935 14.7617 67.6057 16.8167C68.2393 19.9969 69.8653 22.5286 72.392 24.2632C72.7355 24.4976 73.018 24.7086 73.018 24.732C73.018 24.7477 71.4913 27.5918 69.6287 31.0533C67.7584 34.507 66.1782 37.4918 66.1172 37.695C65.9721 38.1169 65.9645 38.3279 66.079 38.7811C66.1859 39.2186 66.5218 39.6328 66.934 39.8359C67.247 39.9922 67.3844 40 69.5141 40C72.0256 40 72.1478 39.9766 72.5981 39.4452C72.7279 39.2968 74.2852 36.2494 76.0715 32.6707C79.186 26.4354 79.3234 26.1697 79.5219 26.1697H79.7356V32.4832V38.8045L79.9112 39.1483C80.0104 39.3358 80.2394 39.5937 80.415 39.7265L80.7433 39.9609L82.7356 39.9844C84.4303 40.0078 84.7815 39.9922 85.0563 39.8828C85.4456 39.7265 85.8044 39.328 85.9112 38.9295C86.0334 38.492 86.0257 1.5644 85.9112 1.15808C85.7891 0.75177 85.4227 0.314201 85.0486 0.142303C84.7586 0.00946808 84.4837 -0.00616074 81.0715 0.00165558C78.3692 0.00946808 77.247 0.0407219 76.7967 0.118858ZM79.7356 13.0505V20.411L78.9417 20.3564C77.9951 20.2938 77.415 20.1532 76.789 19.8328C74.8195 18.8249 73.7203 16.0901 73.8882 12.613C74.0256 9.68283 74.8119 7.62783 76.2241 6.54954C77.0257 5.93225 77.728 5.7291 79.1097 5.70566L79.7356 5.69784V13.0505Z" fill="#133115"/>
<path d="M125.171 0.0743675C120.788 0.332268 118.459 1.08252 116.795 2.77841C115.029 4.56808 114.342 6.73287 114.076 11.3516C113.975 13.1335 113.975 26.8569 114.076 28.67C114.326 33.1012 115.037 35.4066 116.678 37.1025C118.428 38.9078 120.717 39.6581 125.327 39.9238C127.101 40.0254 140.899 40.0254 142.673 39.9238C147.236 39.6581 149.517 38.9313 151.252 37.1729C152.963 35.4379 153.666 33.1715 153.924 28.5918C154.025 26.7162 154.025 13.2742 153.924 11.3985C153.666 6.82666 152.955 4.53682 151.252 2.80967C149.548 1.07471 147.189 0.316635 142.641 0.0665512C141.016 -0.0272293 126.734 -0.019413 125.171 0.0743675ZM125.64 12.688C125.874 12.899 126.038 13.2351 126.421 14.2901C127.796 18.0258 130.203 21.652 131.109 21.3628C131.445 21.2534 131.461 21.1127 131.461 18.1977C131.453 15.5484 131.445 15.3999 131.289 14.9779C131.195 14.7278 131 14.3683 130.859 14.1651C130.382 13.5008 130.328 13.3914 130.328 13.1335C130.328 12.9615 130.39 12.8131 130.523 12.688L130.711 12.4926H133.367C134.828 12.4926 136.078 12.5161 136.149 12.5395C136.211 12.5708 136.328 12.7036 136.406 12.8365C136.524 13.0475 136.547 13.4617 136.578 16.4862C136.617 20.1202 136.625 20.1515 137.008 20.1515C137.25 20.1515 137.844 19.7373 138.266 19.2684C139.29 18.143 140.141 16.7988 141.305 14.4933C142.055 12.9928 142.196 12.7662 142.438 12.6333C142.688 12.5005 142.876 12.4926 144.728 12.5083C146.743 12.5317 146.751 12.5317 146.9 12.7193C147.4 13.3367 146.603 15.0404 144.001 18.9401C142.852 20.6595 142.829 20.6985 142.829 20.9721C142.829 21.269 143.04 21.5426 144.157 22.6914C147.392 26.0128 148.33 27.8103 147.072 28.287C146.97 28.3261 146.048 28.3574 145.04 28.3574C143.313 28.3574 143.165 28.3496 142.852 28.1933C142.61 28.076 142.149 27.6384 141.344 26.7631C139.821 25.1063 138.883 24.2857 138.024 23.848C137.539 23.598 136.977 23.5667 136.75 23.7699C136.602 23.9028 136.594 24.0278 136.563 25.7628C136.547 27.0523 136.508 27.6697 136.438 27.7869C136.25 28.1229 135.758 28.2949 134.852 28.3418C132.109 28.4668 129.343 27.2398 127.038 24.864C124.694 22.4491 121.874 17.4631 121.053 14.2901C120.819 13.3679 120.842 12.9303 121.147 12.6646C121.358 12.4848 121.358 12.4848 123.413 12.5083C125.343 12.5317 125.476 12.5395 125.64 12.688Z" fill="#133115"/>
<path d="M40 20C40 18.7434 39.8821 17.4857 39.6487 16.2646C39.5434 15.7119 39.0593 15.3124 38.4974 15.3124H20.0781C19.4304 15.3124 18.9062 15.8366 18.9062 16.4843V23.5155C18.9062 24.1633 19.4304 24.6874 20.0781 24.6874H29.5287C28.9398 25.8795 28.1284 26.9138 27.1755 27.7839L33.7989 34.4073C37.6099 30.7765 40 25.6671 40 20ZM20 9.375C22.2991 9.375 24.4861 10.1052 26.324 11.4876C26.7886 11.8366 27.4444 11.7943 27.8563 11.3788L32.8574 6.37773C33.0898 6.14539 33.2145 5.82609 33.1996 5.49766C33.1848 5.16922 33.0337 4.8625 32.7819 4.65078C29.2034 1.65141 24.6634 0 20 0C13.1368 0 7.07359 3.48859 3.4893 8.78531L10.368 15.6641C12.0091 11.9675 15.7015 9.375 20 9.375ZM20 40C24.4737 40 28.5932 38.5 31.922 36.001L25.1743 29.2533C23.632 30.1217 21.8691 30.625 20 30.625C15.7015 30.625 12.0091 28.0325 10.368 24.3359L3.4893 31.2147C7.07359 36.5114 13.1368 40 20 40ZM9.54562 21.6879C9.45586 21.1348 9.375 20.5779 9.375 20C9.375 19.4221 9.45586 18.8652 9.54562 18.3121L2.19219 10.9587C0.800938 13.6759 0 16.7434 0 20C0 23.2566 0.800938 26.3241 2.19227 29.0413L9.54562 21.6879Z" fill="#133115"/>
</svg>
