<svg width="328" height="136" viewBox="0 0 328 136" fill="none" xmlns="http://www.w3.org/2000/svg">
<path d="M322.22 67.0133C321.883 67.0307 321.658 67.0742 321.684 67.1177C321.719 67.17 321.615 67.2048 321.476 67.2048C321.329 67.2048 321.208 67.2396 321.208 67.2918C321.208 67.3354 321.113 67.3789 320.992 67.3789C320.871 67.3789 320.776 67.405 320.776 67.4398C320.776 67.4834 320.612 67.5878 320.422 67.6836C320.076 67.849 318.701 69.1113 318.701 69.2593C318.701 69.3028 318.624 69.4073 318.529 69.5117C317.975 70.0863 317.751 70.3387 317.751 70.3823C317.751 70.4345 317.595 70.6173 317.085 71.1658C316.929 71.3312 316.8 71.4879 316.8 71.514C316.8 71.5749 316.514 71.897 316.134 72.2714C315.978 72.4193 315.849 72.576 315.849 72.6196C315.849 72.6631 315.667 72.8894 315.442 73.1245C314.941 73.6468 314.561 74.0821 314.604 74.0821C314.63 74.0821 314.517 74.2127 314.362 74.3694C314.206 74.5261 313.999 74.7698 313.904 74.9004C313.809 75.0397 313.592 75.2921 313.428 75.4663C313.264 75.6491 313.048 75.9015 312.953 76.0321C312.858 76.1714 312.642 76.4239 312.477 76.598C312.313 76.7721 312.097 77.0245 312.002 77.1638C311.794 77.4598 311.691 77.573 311.449 77.7384C311.353 77.808 311.267 77.9038 311.267 77.956C311.267 78.0083 311.103 78.2346 310.904 78.4435C310.696 78.6612 310.42 78.992 310.273 79.1748C310.135 79.3663 309.91 79.6362 309.771 79.7755C309.642 79.9147 309.443 80.1498 309.339 80.2891C309.236 80.4284 308.985 80.7244 308.786 80.942C308.579 81.1596 308.414 81.3599 308.414 81.3947C308.414 81.4208 308.198 81.6732 307.939 81.9605C307.679 82.2478 307.36 82.6134 307.23 82.7701C307.1 82.9268 306.901 83.1532 306.798 83.2663C306.685 83.3795 306.599 83.5014 306.599 83.5275C306.599 83.5536 306.469 83.7103 306.322 83.8757C305.812 84.4242 305.648 84.607 305.648 84.6592C305.648 84.6853 305.432 84.9291 305.173 85.2077C304.913 85.4775 304.697 85.73 304.697 85.7648C304.697 85.7996 304.524 85.9999 304.317 86.2088C304.109 86.4177 303.876 86.6963 303.789 86.8269L303.642 87.0532H298.896H294.15V79.2705C294.15 74.1691 294.125 71.4617 294.064 71.4269C294.021 71.4008 293.978 71.2006 293.978 70.9916C293.978 70.7827 293.943 70.5825 293.891 70.5564C293.848 70.5303 293.805 70.4084 293.805 70.2865C293.805 70.1733 293.77 70.0776 293.718 70.0776C293.675 70.0776 293.632 69.9992 293.632 69.9035C293.632 69.8077 293.589 69.7294 293.537 69.7294C293.493 69.7294 293.476 69.6858 293.502 69.6423C293.528 69.5901 293.511 69.5553 293.468 69.5553C293.416 69.5553 293.372 69.503 293.372 69.4421C293.372 69.3811 293.295 69.2767 293.2 69.207C293.104 69.1374 293.027 69.0416 293.027 68.9981C293.027 68.911 292.283 68.1624 292.197 68.1624C292.179 68.1624 292.067 68.084 291.963 67.9796C291.86 67.8838 291.626 67.7358 291.453 67.6575C291.272 67.5791 291.125 67.4834 291.125 67.4485C291.125 67.405 291.047 67.3789 290.952 67.3789C290.857 67.3789 290.779 67.3354 290.779 67.2918C290.779 67.2396 290.667 67.2048 290.52 67.2048C290.381 67.2048 290.26 67.1613 290.26 67.1177C290.26 67.0655 289.785 67.0307 289.007 67.0307C288.229 67.0307 287.753 67.0655 287.753 67.1177C287.753 67.1613 287.641 67.2048 287.494 67.2048C287.356 67.2048 287.235 67.2309 287.235 67.2657C287.235 67.3092 287.019 67.4311 286.759 67.553C286.5 67.6749 286.284 67.7967 286.284 67.8316C286.284 67.8664 286.197 67.9186 286.094 67.9534C285.912 68.0057 284.814 69.0765 284.814 69.1983C284.814 69.2332 284.719 69.3811 284.598 69.5204C284.477 69.6597 284.382 69.8425 284.382 69.9209C284.382 70.0079 284.347 70.0776 284.295 70.0776C284.252 70.0776 284.209 70.1646 284.209 70.2778C284.209 70.391 284.157 70.5303 284.105 70.5825C284.019 70.6695 283.993 75.0484 284.002 91.9109C284.002 103.576 284.019 113.213 284.028 113.318C284.036 113.422 284.079 113.535 284.123 113.561C284.174 113.587 284.209 113.727 284.209 113.875C284.209 114.014 284.252 114.127 284.295 114.127C284.347 114.127 284.382 114.188 284.382 114.258C284.382 114.327 284.425 114.388 284.468 114.388C284.52 114.388 284.555 114.467 284.555 114.562C284.555 114.658 284.589 114.737 284.633 114.737C284.676 114.737 284.736 114.806 284.762 114.885C284.84 115.111 285.679 115.981 286.007 116.173C286.154 116.269 286.284 116.373 286.284 116.408C286.284 116.443 286.344 116.478 286.413 116.478C286.483 116.478 286.543 116.512 286.543 116.565C286.543 116.608 286.621 116.652 286.716 116.652C286.811 116.652 286.889 116.687 286.889 116.739C286.889 116.782 286.984 116.826 287.105 116.826C287.226 116.826 287.321 116.861 287.321 116.913C287.321 116.965 287.935 117 288.998 117C290.027 117 290.701 116.965 290.736 116.913C290.762 116.861 290.865 116.826 290.961 116.826C291.047 116.826 291.125 116.782 291.125 116.739C291.125 116.687 291.203 116.652 291.298 116.652C291.393 116.652 291.471 116.608 291.471 116.565C291.471 116.512 291.531 116.478 291.6 116.478C291.669 116.478 291.73 116.443 291.73 116.408C291.73 116.373 291.851 116.269 292.007 116.173C292.309 115.999 293.027 115.302 293.027 115.189C293.027 115.154 293.104 115.067 293.2 114.998C293.295 114.928 293.372 114.806 293.372 114.728C293.372 114.65 293.424 114.536 293.493 114.484C293.563 114.423 293.666 114.206 293.727 113.997C293.787 113.779 293.874 113.605 293.908 113.605C293.943 113.605 293.978 113.431 293.978 113.213C293.978 112.995 294.021 112.821 294.064 112.821C294.125 112.821 294.142 110.218 294.133 104.986L294.107 97.1516H298.931C302.864 97.1516 303.746 97.169 303.746 97.2647C303.746 97.3344 303.962 97.6042 304.222 97.8741C304.481 98.144 304.697 98.379 304.697 98.4051C304.697 98.4487 305.077 98.9014 305.458 99.2931C305.562 99.4063 305.648 99.5194 305.648 99.5456C305.648 99.6065 305.925 99.9286 306.322 100.312C306.469 100.46 306.599 100.616 306.599 100.651C306.599 100.695 306.798 100.921 307.031 101.173C307.273 101.417 307.463 101.652 307.463 101.678C307.463 101.713 307.628 101.913 307.835 102.131C308.034 102.349 308.285 102.645 308.388 102.784C308.492 102.923 308.691 103.158 308.821 103.298C308.95 103.437 309.218 103.75 309.408 103.985C309.59 104.229 309.806 104.482 309.884 104.551C309.962 104.621 310.135 104.83 310.264 105.013C310.403 105.187 310.653 105.483 310.826 105.674C311.353 106.24 311.95 106.936 312.106 107.163C312.183 107.285 312.408 107.528 312.59 107.703C312.771 107.885 312.892 108.033 312.858 108.033C312.823 108.033 312.884 108.103 312.979 108.199C313.082 108.286 313.169 108.39 313.169 108.425C313.169 108.46 313.281 108.591 313.411 108.712C313.541 108.843 313.765 109.104 313.904 109.296C314.051 109.487 314.319 109.801 314.509 109.992C314.699 110.184 314.906 110.445 314.976 110.575C315.045 110.706 315.166 110.837 315.261 110.871C315.347 110.897 315.417 110.95 315.417 110.993C315.417 111.037 315.512 111.167 315.633 111.289C315.754 111.411 315.849 111.533 315.849 111.559C315.849 111.585 315.978 111.742 316.134 111.907C316.644 112.456 316.8 112.639 316.8 112.691C316.8 112.734 317.024 112.987 317.578 113.561C317.673 113.666 317.751 113.77 317.751 113.805C317.751 113.831 317.949 114.066 318.183 114.31C318.425 114.554 318.615 114.789 318.615 114.824C318.615 114.954 320.015 116.295 320.258 116.408C320.405 116.469 320.517 116.547 320.517 116.582C320.517 116.626 320.595 116.652 320.69 116.652C320.785 116.652 320.863 116.687 320.863 116.739C320.863 116.782 320.94 116.826 321.036 116.826C321.131 116.826 321.208 116.861 321.208 116.913C321.208 116.965 321.84 117 322.929 117C323.992 117 324.675 116.965 324.71 116.913C324.736 116.861 324.839 116.826 324.934 116.826C325.021 116.826 325.099 116.782 325.099 116.739C325.099 116.687 325.176 116.652 325.271 116.652C325.367 116.652 325.444 116.608 325.444 116.565C325.444 116.512 325.505 116.478 325.574 116.478C325.643 116.478 325.704 116.443 325.704 116.408C325.704 116.373 325.825 116.269 325.98 116.173C326.266 116.008 327 115.311 327 115.207C327 115.172 327.07 115.085 327.156 115.006C327.338 114.832 327.778 113.962 327.778 113.762C327.778 113.683 327.83 113.605 327.882 113.587C328.038 113.535 328.038 110.541 327.891 110.497C327.83 110.471 327.778 110.358 327.778 110.245C327.778 110.131 327.744 110.036 327.692 110.036C327.649 110.036 327.606 109.957 327.606 109.87C327.606 109.774 327.545 109.644 327.476 109.566C327.407 109.496 327.346 109.383 327.346 109.322C327.346 109.252 327.268 109.148 327.173 109.078C327.078 109.008 327 108.921 327 108.878C327 108.834 326.888 108.695 326.758 108.573C326.629 108.443 326.404 108.181 326.266 107.99C326.119 107.798 325.885 107.528 325.747 107.38C325.6 107.241 325.341 106.945 325.168 106.728C324.995 106.51 324.727 106.197 324.563 106.022C324.407 105.848 324.174 105.57 324.044 105.413C323.923 105.248 323.698 104.978 323.56 104.812C323.413 104.647 323.214 104.412 323.119 104.29C322.721 103.82 322.272 103.306 321.943 102.941C321.753 102.74 321.52 102.462 321.425 102.323C321.329 102.192 321.113 101.94 320.949 101.757C320.785 101.583 320.569 101.33 320.474 101.191C320.379 101.06 320.119 100.756 319.894 100.529C319.661 100.294 319.48 100.077 319.48 100.033C319.48 99.9982 319.246 99.711 318.961 99.4063C318.261 98.6576 317.863 98.2049 317.638 97.9002C317.534 97.7609 317.344 97.5433 317.223 97.4127C317.102 97.2734 316.886 97.021 316.748 96.8382C316.609 96.664 316.359 96.3681 316.186 96.1852C316.013 96.0111 315.78 95.7326 315.667 95.5759C315.555 95.4105 315.347 95.158 315.2 95.0187C315.053 94.8707 314.846 94.6357 314.734 94.4964C314.63 94.3484 314.414 94.0959 314.267 93.9305C314.111 93.7651 313.835 93.4343 313.644 93.1906C313.454 92.9555 313.169 92.6247 313.022 92.4593C312.866 92.2939 312.737 92.1198 312.737 92.0676C312.737 92.024 312.884 91.8499 313.056 91.6758C313.229 91.5104 313.454 91.2493 313.549 91.1013C313.722 90.8488 314.059 90.4658 314.569 89.9173C314.699 89.778 314.785 89.6649 314.751 89.6649C314.725 89.6649 314.777 89.5952 314.863 89.5082C314.95 89.4298 315.174 89.1861 315.356 88.9684C315.702 88.5506 316.35 87.8106 316.73 87.3927C316.852 87.2534 316.938 87.1403 316.921 87.1403C316.895 87.1403 317.007 87.0097 317.163 86.8443C317.621 86.3655 317.923 86.0086 317.88 86.0086C317.854 86.0086 317.958 85.878 318.114 85.7213C318.269 85.5646 318.477 85.3295 318.563 85.199C318.658 85.0771 318.771 84.9987 318.814 85.0249C318.866 85.051 318.874 85.0336 318.84 84.9813C318.805 84.9291 318.926 84.7376 319.108 84.5548C319.289 84.3719 319.497 84.1282 319.566 84.015C319.722 83.7713 319.834 83.6581 320.076 83.484C320.171 83.4143 320.258 83.3186 320.258 83.2663C320.258 83.2228 320.482 82.9442 320.759 82.6483C321.027 82.3523 321.329 82.0128 321.425 81.8822C321.52 81.7516 321.727 81.4991 321.883 81.325C322.038 81.1422 322.254 80.8898 322.358 80.7592C322.462 80.6199 322.713 80.3326 322.92 80.1237C323.119 79.906 323.283 79.7058 323.283 79.671C323.283 79.6362 323.499 79.375 323.759 79.0877C324.018 78.8004 324.338 78.4348 324.468 78.2781C324.597 78.1214 324.796 77.8951 324.908 77.7819C325.012 77.6687 325.099 77.5469 325.099 77.5207C325.099 77.4946 325.332 77.2335 325.617 76.9375C325.903 76.6502 326.136 76.3716 326.136 76.3281C326.136 76.2846 326.318 76.0669 326.551 75.8319C326.776 75.6055 327.009 75.3183 327.078 75.1877C327.147 75.0571 327.234 74.9526 327.277 74.9526C327.312 74.9526 327.346 74.8917 327.346 74.8221C327.346 74.7524 327.389 74.6915 327.441 74.6915C327.485 74.6915 327.502 74.6479 327.476 74.6044C327.45 74.5522 327.467 74.5174 327.51 74.5174C327.562 74.5174 327.606 74.439 327.606 74.352C327.606 74.2562 327.649 74.1517 327.692 74.1256C327.744 74.0995 327.778 73.995 327.778 73.908C327.778 73.8209 327.83 73.7339 327.891 73.7078C328.038 73.6642 328.038 70.7392 327.882 70.5825C327.83 70.5303 327.778 70.391 327.778 70.2778C327.778 70.1646 327.744 70.0776 327.701 70.0776C327.657 70.0776 327.606 69.9557 327.571 69.8164C327.545 69.6684 327.424 69.4508 327.312 69.3376C327.199 69.2244 327.078 69.0503 327.044 68.9546C327.018 68.8588 326.923 68.7631 326.845 68.7369C326.767 68.7108 326.62 68.5715 326.525 68.4235C326.43 68.2843 326.3 68.1624 326.248 68.1624C326.188 68.1624 326.136 68.1276 326.136 68.0927C326.136 68.0579 325.911 67.9099 325.643 67.7706C325.367 67.6226 325.133 67.4834 325.116 67.4398C325.099 67.405 325.012 67.3789 324.917 67.3789C324.831 67.3789 324.753 67.3354 324.753 67.2918C324.753 67.2396 324.64 67.2048 324.502 67.2048C324.364 67.2048 324.234 67.17 324.217 67.1351C324.182 67.0394 323.024 66.9697 322.22 67.0133Z" fill="#133115"/>
<path d="M3.75555 67.0871C3.75555 67.1307 3.64201 67.1742 3.49354 67.1742C3.35379 67.1742 3.23152 67.2091 3.23152 67.2613C3.23152 67.3049 3.15292 67.3484 3.05684 67.3484C2.96077 67.3484 2.88217 67.3833 2.88217 67.4181C2.88217 67.4617 2.74243 67.5401 2.57648 67.6098C2.41054 67.6794 2.2708 67.7578 2.2708 67.7927C2.2708 67.8275 2.19219 67.8885 2.08739 67.9146C1.87778 67.9843 0.960722 68.8467 0.960722 68.9774C0.960722 69.0209 0.890852 69.1429 0.812247 69.2474C0.724909 69.3432 0.585167 69.5087 0.497829 69.6045C0.419224 69.7091 0.349354 69.8484 0.349354 69.9181C0.349354 69.9878 0.314418 70.0488 0.262015 70.0488C0.218346 70.0488 0.174677 70.162 0.174677 70.3101C0.174677 70.4495 0.139741 70.5714 0.0873384 70.5714C0.0262015 70.5714 0 77.8014 0 92.0871C0 106.373 0.0262015 113.603 0.0873384 113.603C0.139741 113.603 0.174677 113.681 0.174677 113.777C0.174677 113.96 0.314418 114.256 0.497829 114.456C0.558966 114.517 0.611369 114.605 0.611369 114.639C0.611369 114.735 0.86465 115.031 1.44108 115.606C2.02625 116.199 2.14852 116.303 2.2708 116.303C2.31447 116.303 2.35814 116.338 2.35814 116.39C2.35814 116.434 2.41927 116.477 2.48914 116.477C2.55902 116.477 2.62015 116.512 2.62015 116.564C2.62015 116.608 2.69876 116.652 2.79483 116.652C2.8909 116.652 2.96951 116.686 2.96951 116.739C2.96951 116.782 3.04811 116.826 3.14418 116.826C3.24025 116.826 3.31886 116.861 3.31886 116.913C3.31886 116.965 3.93896 117 5.01322 117C6.05255 117 6.73379 116.965 6.76873 116.913C6.79493 116.861 6.89973 116.826 6.99581 116.826C7.08314 116.826 7.16175 116.782 7.16175 116.739C7.16175 116.686 7.24035 116.652 7.33643 116.652C7.4325 116.652 7.5111 116.608 7.5111 116.564C7.5111 116.512 7.57224 116.477 7.64211 116.477C7.71198 116.477 7.77312 116.443 7.77312 116.399C7.77312 116.355 7.85172 116.286 7.94779 116.26C8.17487 116.19 9.23167 115.136 9.30154 114.909C9.32774 114.814 9.39761 114.735 9.44128 114.735C9.48495 114.735 9.51989 114.657 9.51989 114.561C9.51989 114.465 9.56355 114.387 9.60722 114.387C9.65963 114.387 9.69456 114.326 9.69456 114.256C9.69456 114.186 9.73823 114.125 9.7819 114.125C9.8343 114.125 9.86924 114.003 9.86924 113.864C9.86924 113.716 9.91291 113.603 9.95658 113.603C10.009 113.603 10.0439 113.463 10.0439 113.298C10.0439 113.132 10.0876 112.993 10.1313 112.993C10.1924 112.993 10.2099 111.321 10.2011 107.941L10.1749 102.889H18.8476C24.612 102.889 27.5029 102.862 27.4679 102.801C27.433 102.749 27.6164 102.714 27.9396 102.714C28.2365 102.714 28.4723 102.679 28.4723 102.627C28.4723 102.575 28.647 102.54 28.8566 102.54C29.075 102.54 29.2758 102.497 29.302 102.453C29.3282 102.401 29.4505 102.366 29.5728 102.366C29.6863 102.366 29.8523 102.331 29.9396 102.287C30.123 102.2 30.7693 102.017 31.1623 101.956C31.3108 101.93 31.4418 101.878 31.4418 101.834C31.4418 101.791 31.5204 101.756 31.6165 101.756C31.7126 101.756 31.7912 101.713 31.7912 101.669C31.7912 101.617 31.8872 101.582 32.0095 101.582C32.1318 101.582 32.2279 101.538 32.2279 101.495C32.2279 101.443 32.2803 101.408 32.3501 101.408C32.4113 101.408 32.586 101.347 32.717 101.277C32.8567 101.207 33.0401 101.146 33.1275 101.146C33.2148 101.146 33.2585 101.103 33.2323 101.059C33.2061 101.007 33.2585 100.972 33.3545 100.972C33.4593 100.972 33.5379 100.929 33.5379 100.885C33.5379 100.833 33.5903 100.798 33.6602 100.798C33.7301 100.798 33.8 100.772 33.8174 100.728C33.8524 100.65 34.2891 100.38 34.6035 100.249C34.7432 100.197 34.848 100.118 34.848 100.084C34.848 100.049 34.9004 100.014 34.9703 100.014C35.0402 100.014 35.11 99.9878 35.1275 99.9443C35.1624 99.8746 35.7738 99.4042 35.8437 99.4042C35.8873 99.4042 36.455 98.9077 36.9616 98.4199C37.0489 98.3415 37.1363 98.2718 37.1625 98.2718C37.1887 98.2718 37.3459 98.1411 37.5031 97.9843C37.6603 97.8362 37.8787 97.6446 37.9835 97.5749C38.0795 97.5052 38.1843 97.392 38.2105 97.3136C38.2368 97.2439 38.4638 96.9652 38.7171 96.6951C38.9617 96.4251 39.2499 96.1028 39.3459 95.9721C39.442 95.8328 39.5643 95.6847 39.608 95.6237C39.6604 95.5714 39.7477 95.4233 39.8176 95.284C39.8874 95.1533 39.9748 95.0488 40.0185 95.0488C40.0796 95.0488 40.2281 94.7962 40.656 93.9948C40.6997 93.899 40.7696 93.8293 40.8045 93.8293C40.8482 93.8293 40.8744 93.7509 40.8744 93.6551C40.8744 93.5592 40.9093 93.4808 40.953 93.4808C40.9966 93.4808 41.0578 93.385 41.084 93.2631C41.1189 93.1411 41.1801 93.0453 41.2237 93.0453C41.2761 93.0453 41.3111 92.9669 41.3111 92.8711C41.3111 92.7753 41.3547 92.6969 41.3984 92.6969C41.4508 92.6969 41.4857 92.601 41.4857 92.4791C41.4857 92.3571 41.5294 92.2613 41.5731 92.2613C41.6255 92.2613 41.6604 92.1829 41.6604 92.0871C41.6604 91.9913 41.7041 91.9129 41.7478 91.9129C41.8002 91.9129 41.8351 91.8345 41.8351 91.7387C41.8351 91.6429 41.87 91.5645 41.9137 91.5645C41.9574 91.5645 42.0272 91.3467 42.0534 91.0854C42.0884 90.824 42.1495 90.6063 42.1932 90.6063C42.2369 90.6063 42.2718 90.5105 42.2718 90.3885C42.2718 90.2666 42.3155 90.1707 42.3591 90.1707C42.4115 90.1707 42.4465 90.0314 42.4465 89.8659C42.4465 89.7003 42.4901 89.561 42.5338 89.561C42.5862 89.561 42.6211 89.4042 42.6211 89.2125C42.6211 89.0209 42.6648 88.8641 42.7085 88.8641C42.7609 88.8641 42.7958 88.6725 42.7958 88.4373C42.7958 88.1934 42.8395 87.9756 42.8919 87.9495C42.9356 87.9146 42.9792 87.6098 42.988 87.27C43.0142 85.4233 42.9967 83.2631 42.9443 82.723C42.8133 81.2857 42.7783 81.0244 42.6997 81.0767C42.6561 81.1028 42.6211 80.946 42.6211 80.7282C42.6211 80.5105 42.5862 80.3275 42.5338 80.3275C42.4901 80.3275 42.4465 80.1882 42.4465 80.0226C42.4465 79.8571 42.4115 79.7178 42.3679 79.7178C42.3242 79.7178 42.2718 79.6132 42.2456 79.4739C42.0884 78.7422 41.9661 78.324 41.905 78.324C41.87 78.324 41.8351 78.2456 41.8351 78.1498C41.8351 78.054 41.8002 77.9756 41.7478 77.9756C41.7041 77.9756 41.6604 77.8972 41.6604 77.8014C41.6604 77.7056 41.6255 77.6272 41.5731 77.6272C41.5294 77.6272 41.4857 77.5314 41.4857 77.4094C41.4857 77.2875 41.4508 77.1916 41.3984 77.1916C41.3547 77.1916 41.3111 77.1132 41.3111 77.0174C41.3111 76.9216 41.2761 76.8432 41.2325 76.8432C41.1888 76.8432 41.1277 76.7474 41.1014 76.6254C41.0665 76.5035 41.0054 76.4077 40.9617 76.4077C40.9093 76.4077 40.8744 76.3293 40.8744 76.2334C40.8744 76.1376 40.8394 76.0592 40.787 76.0592C40.7434 76.0592 40.6997 75.9983 40.6997 75.9286C40.6997 75.8589 40.6648 75.7979 40.6124 75.7979C40.5687 75.7979 40.525 75.7195 40.525 75.6237C40.525 75.5279 40.4901 75.4495 40.4551 75.4495C40.4115 75.4495 40.3154 75.3101 40.2368 75.1446C40.1582 74.9791 40.0534 74.8397 40.001 74.8397C39.9573 74.8397 39.9136 74.7875 39.9136 74.7265C39.9136 74.6655 39.7739 74.4652 39.608 74.2822C39.442 74.0993 39.3023 73.9164 39.3023 73.8815C39.3023 73.8467 39.049 73.5505 38.7346 73.2195C38.4289 72.8885 38.1669 72.5662 38.1669 72.5052C38.1669 72.453 38.1319 72.4007 38.097 72.4007C38.0533 72.4007 37.835 72.2265 37.6166 72.0087C37.3896 71.7909 37.1887 71.6167 37.1712 71.6167C37.1538 71.6167 36.9529 71.4425 36.7345 71.2247C36.5075 71.007 36.2891 70.8328 36.2454 70.8328C36.2105 70.8328 36.1581 70.8066 36.1406 70.7631C36.1319 70.7282 35.8961 70.5453 35.6341 70.3537C35.3721 70.162 35.145 69.9791 35.1275 69.9442C35.11 69.9007 35.0402 69.8746 34.979 69.8746C34.9179 69.8746 34.848 69.8484 34.8306 69.8049C34.7956 69.7265 34.1668 69.3606 33.9572 69.2909C33.8698 69.2648 33.8 69.2125 33.8 69.169C33.8 69.1254 33.7388 69.0906 33.669 69.0906C33.5991 69.0906 33.5379 69.047 33.5379 69.0035C33.5379 68.9512 33.4768 68.9164 33.4069 68.9164C33.3371 68.9164 33.2759 68.8815 33.2759 68.838C33.2759 68.7944 33.1187 68.7334 32.9266 68.6986C32.7344 68.6638 32.5772 68.6028 32.5772 68.5592C32.5772 68.5157 32.4986 68.4808 32.4025 68.4808C32.3065 68.4808 32.2279 68.4373 32.2279 68.3937C32.2279 68.3415 32.1493 68.3066 32.0619 68.3066C31.9659 68.3066 31.861 68.2631 31.8348 68.2195C31.8086 68.1672 31.7038 68.1324 31.6078 68.1324C31.5204 68.1324 31.4418 68.0976 31.4418 68.054C31.4418 68.0105 31.2497 67.9582 31.0051 67.9233C30.7693 67.8885 30.551 67.8275 30.5248 67.784C30.4986 67.7317 30.3588 67.6969 30.2191 67.6969C30.0793 67.6969 29.9396 67.6533 29.9134 67.6098C29.8872 67.5575 29.7475 67.5226 29.6077 67.5226C29.468 67.5226 29.3282 67.4791 29.302 67.4355C29.2758 67.3833 29.0924 67.3484 28.9003 67.3484C28.7169 67.3484 28.5597 67.3049 28.5597 67.2613C28.5597 67.2091 28.3064 67.1742 27.9832 67.1742C27.6251 67.1742 27.433 67.1394 27.4679 67.0871C27.5029 67.0261 23.5377 67 15.6423 67C7.77312 67 3.75555 67.0261 3.75555 67.0871ZM25.5028 77.27C25.5028 77.3049 25.8434 77.3659 26.2714 77.392C26.9701 77.4355 27.3981 77.5314 27.7911 77.723C27.8784 77.7665 28.0094 77.8014 28.0793 77.8014C28.1492 77.8014 28.2103 77.8362 28.2103 77.8885C28.2103 77.9321 28.2889 77.9756 28.385 77.9756C28.4811 77.9756 28.5597 78.0105 28.5597 78.0627C28.5597 78.1063 28.6121 78.1498 28.6819 78.1498C28.7518 78.1498 28.8217 78.176 28.8391 78.2108C28.8566 78.2544 29.0138 78.3589 29.1972 78.446C29.3806 78.5418 29.6427 78.7247 29.7824 78.8641C29.9309 78.9948 30.0706 79.108 30.1055 79.108C30.2628 79.108 31.5292 80.554 31.5292 80.7369C31.5292 80.7979 31.5641 80.8502 31.6165 80.8502C31.6602 80.8502 31.7213 80.946 31.7562 81.0679C31.7824 81.1899 31.8436 81.2857 31.8872 81.2857C31.9309 81.2857 31.9659 81.3641 31.9659 81.4599C31.9659 81.5557 31.9921 81.6341 32.0357 81.6341C32.1231 81.6341 32.3152 82.0697 32.3152 82.2613C32.3152 82.3484 32.3501 82.4181 32.3938 82.4181C32.4287 82.4181 32.4462 82.5139 32.42 82.6359C32.4025 82.7665 32.42 82.8537 32.4812 82.8537C32.5336 82.8537 32.5772 83.0192 32.5772 83.2456C32.5772 83.4634 32.6209 83.6376 32.6646 83.6376C32.717 83.6376 32.7519 84.0993 32.7519 84.8571C32.7519 85.615 32.717 86.0767 32.6646 86.0767C32.6209 86.0767 32.5772 86.2509 32.5772 86.4599C32.5772 86.6777 32.5423 86.8693 32.4986 86.8955C32.4637 86.9216 32.4025 87.1394 32.3676 87.3833C32.3327 87.6185 32.2715 87.8188 32.2279 87.8188C32.1755 87.8188 32.1405 87.9146 32.1405 88.0366C32.1405 88.1585 32.1056 88.2544 32.0532 88.2544C32.0095 88.2544 31.9659 88.3066 31.9659 88.3676C31.9659 88.4286 31.8872 88.5679 31.7824 88.6725C31.6864 88.777 31.634 88.9077 31.6602 88.9512C31.6864 89.0035 31.6776 89.0383 31.6252 89.0383C31.5816 89.0383 31.5117 89.1167 31.4855 89.2125C31.4506 89.3084 31.337 89.4913 31.2147 89.6045C31.1012 89.7178 31.0051 89.8397 31.0051 89.8659C31.0051 89.9355 30.1667 90.7805 30.0968 90.7805C30.0706 90.7805 29.9309 90.8937 29.7824 91.0244C29.6427 91.1638 29.3806 91.3467 29.1972 91.4425C29.0138 91.5296 28.8566 91.6341 28.8391 91.669C28.8217 91.7125 28.7518 91.7387 28.6819 91.7387C28.6121 91.7387 28.5597 91.7735 28.5597 91.8258C28.5597 91.8693 28.5073 91.9129 28.4461 91.9129C28.3762 91.9129 28.1928 91.9826 28.0269 92.061C27.4505 92.3571 27.1098 92.4443 26.3151 92.4965C25.8696 92.5226 25.529 92.5836 25.5552 92.6185C25.5814 92.662 22.1315 92.6969 17.8869 92.6969H10.1749V84.9443V77.1916H17.8432C22.0704 77.1916 25.5028 77.2265 25.5028 77.27Z" fill="#133115"/>
<path d="M53.8022 67.0871C53.8367 67.1394 53.7333 67.1742 53.5523 67.1742C53.38 67.1742 53.2421 67.2091 53.2421 67.2613C53.2421 67.3049 53.1646 67.3484 53.0698 67.3484C52.975 67.3484 52.8974 67.3833 52.8974 67.4355C52.8974 67.4791 52.8199 67.5226 52.7251 67.5226C52.6303 67.5226 52.5528 67.5575 52.5528 67.601C52.5528 67.6446 52.458 67.7056 52.3373 67.7317C52.0788 67.8014 50.8725 68.9774 50.7949 69.2474C50.7604 69.3519 50.6915 69.439 50.6484 69.439C50.6053 69.439 50.5709 69.5 50.5709 69.5697C50.5709 69.6394 50.5364 69.7003 50.4847 69.7003C50.4416 69.7003 50.3985 69.7787 50.3985 69.8746C50.3985 69.9704 50.3641 70.0488 50.3124 70.0488C50.2693 70.0488 50.2262 70.162 50.2262 70.3014C50.2262 70.4408 50.1745 70.5714 50.1228 70.5888C49.9591 70.6498 49.9591 113.524 50.1228 113.577C50.1745 113.603 50.2262 113.681 50.2262 113.768C50.2262 113.96 50.4244 114.387 50.5106 114.387C50.545 114.387 50.5709 114.465 50.5709 114.561C50.5709 114.657 50.6053 114.735 50.6484 114.735C50.6915 114.735 50.7518 114.814 50.7863 114.901C50.8552 115.127 51.8893 116.181 52.1133 116.26C52.2081 116.286 52.2942 116.355 52.2942 116.399C52.2942 116.443 52.3546 116.477 52.4235 116.477C52.4924 116.477 52.5528 116.512 52.5528 116.564C52.5528 116.608 52.6303 116.652 52.7251 116.652C52.8199 116.652 52.8974 116.686 52.8974 116.739C52.8974 116.782 52.9922 116.826 53.1129 116.826C53.2335 116.826 53.3283 116.861 53.3283 116.913C53.3283 116.974 59.6014 117 71.9838 117C84.3663 117 90.6394 116.974 90.6394 116.913C90.6394 116.861 90.7342 116.826 90.8548 116.826C90.9755 116.826 91.0703 116.782 91.0703 116.739C91.0703 116.686 91.1478 116.652 91.2426 116.652C91.3374 116.652 91.4149 116.617 91.4149 116.582C91.4149 116.538 91.5183 116.451 91.6562 116.382C91.9836 116.207 92.0526 116.146 92.5868 115.606C92.8453 115.345 93.0521 115.075 93.0521 115.023C93.0521 114.962 93.0866 114.909 93.1297 114.909C93.1986 114.909 93.5088 114.317 93.7329 113.751C93.7846 113.62 93.8277 113.394 93.8277 113.254C93.8277 113.106 93.8707 112.993 93.9138 112.993C93.9655 112.993 94 112.636 94 112.087C94 111.573 93.9655 111.146 93.9138 111.12C93.8707 111.094 93.8277 110.929 93.8277 110.763C93.8277 110.598 93.7932 110.467 93.7415 110.467C93.6984 110.467 93.6553 110.389 93.6553 110.293C93.6553 110.197 93.6209 110.049 93.5692 109.962C93.5261 109.883 93.4227 109.657 93.3365 109.465C93.2503 109.274 93.0694 108.986 92.9229 108.838C92.2508 108.106 91.8802 107.767 91.7596 107.767C91.7165 107.767 91.6734 107.723 91.6734 107.679C91.6734 107.627 91.5959 107.592 91.5011 107.592C91.4063 107.592 91.3288 107.557 91.3288 107.514C91.3288 107.47 91.2167 107.409 91.0703 107.375C90.9324 107.34 90.7945 107.279 90.7687 107.235C90.7342 107.192 90.6049 107.157 90.4671 107.157C90.3292 107.157 90.1913 107.113 90.1655 107.07C90.131 107.009 85.0212 106.983 75.1204 106.983H60.1356V102.061V97.1394H73.6641C81.5141 97.1394 87.2616 97.1045 87.3478 97.061C87.4253 97.0174 87.7183 96.9129 87.994 96.8258C88.2612 96.7387 88.4852 96.6341 88.4852 96.5993C88.4852 96.5645 88.5455 96.5296 88.6144 96.5296C88.7695 96.5296 88.9936 96.3554 89.5968 95.7369C90.2861 95.0488 90.5532 94.7178 90.5532 94.5784C90.5532 94.5087 90.5791 94.439 90.6222 94.4216C90.717 94.378 90.9841 93.5331 90.9841 93.2718C90.9841 93.1498 91.0272 93.0453 91.0703 93.0453C91.122 93.0453 91.1564 92.6707 91.1564 92.0871C91.1564 91.5035 91.122 91.1289 91.0703 91.1289C91.0272 91.1289 90.9841 91.0331 90.9841 90.9111C90.9841 90.6324 90.7083 89.7352 90.6222 89.7352C90.5877 89.7352 90.5532 89.6655 90.5532 89.5784C90.5532 89.4913 90.4757 89.3693 90.3809 89.2997C90.2861 89.23 90.2086 89.1429 90.2086 89.0993C90.2086 89.0645 90.1224 88.9425 90.019 88.838C89.907 88.7247 89.726 88.5157 89.6054 88.3763C89.4847 88.2282 89.2521 88.0366 89.0884 87.9408C88.9246 87.8537 88.7178 87.7056 88.6231 87.6185C88.5283 87.5401 88.4076 87.4704 88.3473 87.4704C88.287 87.4704 88.2267 87.4443 88.2094 87.4007C88.2008 87.3659 87.9682 87.27 87.701 87.1829C87.253 87.0436 86.2879 87.0348 73.6814 87.0348H60.1356V82.1132V77.1916H75.129C85.0643 77.1916 90.1224 77.1655 90.1224 77.1045C90.1224 77.0523 90.2172 77.0174 90.3378 77.0174C90.4585 77.0174 90.6222 76.9826 90.7083 76.939C90.7859 76.8868 91.0186 76.7822 91.2254 76.7038C91.4235 76.6167 91.5873 76.5209 91.5873 76.4774C91.5873 76.4425 91.6476 76.4077 91.7165 76.4077C91.7941 76.4077 91.9406 76.3206 92.0526 76.2073C92.1646 76.1028 92.38 75.8937 92.5437 75.7369C92.9832 75.3188 93.1125 75.1359 93.5261 74.2474C93.6898 73.9077 93.8277 73.507 93.8277 73.3676C93.8277 73.2195 93.8707 73.0801 93.9138 73.054C93.9655 73.0279 94 72.601 94 72.0871C94 71.5383 93.9655 71.1812 93.9138 71.1812C93.8707 71.1812 93.8277 71.0505 93.8277 70.885C93.8277 70.7195 93.7932 70.554 93.7415 70.5279C93.6984 70.5017 93.6553 70.3798 93.6553 70.2578C93.6553 70.1446 93.6209 70.0488 93.5692 70.0488C93.5261 70.0488 93.483 69.9878 93.483 69.9094C93.483 69.439 92.3456 68.1324 91.57 67.723C91.3201 67.5923 91.1047 67.453 91.0875 67.4094C91.0703 67.3746 90.9841 67.3484 90.8893 67.3484C90.8031 67.3484 90.7256 67.3049 90.7256 67.2613C90.7256 67.2091 90.5877 67.1742 90.4154 67.1742C90.2344 67.1742 90.131 67.1394 90.1655 67.0871C90.2 67.0261 84.1164 67 71.9838 67C59.8513 67 53.7677 67.0261 53.8022 67.0871Z" fill="#133115"/>
<path d="M185.69 67.0871C185.725 67.1394 185.63 67.1742 185.483 67.1742C185.337 67.1742 185.216 67.209 185.216 67.2613C185.216 67.3049 185.121 67.3484 185.001 67.3484C184.88 67.3484 184.785 67.3745 184.785 67.4181C184.785 67.4529 184.638 67.5487 184.466 67.6358C184.035 67.8362 183.828 67.9668 183.655 68.1497C183.578 68.2368 183.483 68.3065 183.457 68.3065C183.38 68.3065 183.147 68.533 183.147 68.6114C183.147 68.6375 183.104 68.7072 183.061 68.7681C182.724 69.1688 182.629 69.2995 182.629 69.3604C182.629 69.3953 182.578 69.4824 182.526 69.5433C182.336 69.7437 182.198 70.0398 182.198 70.214C182.198 70.3098 182.164 70.4143 182.112 70.4405C182.069 70.4666 182.026 70.5798 182.017 70.6843C182.009 70.7889 182 80.4222 182 92.0849C182 103.748 182.009 113.381 182.017 113.485C182.026 113.59 182.069 113.703 182.112 113.729C182.164 113.756 182.198 113.86 182.198 113.965C182.198 114.13 182.509 114.661 182.647 114.714C182.681 114.731 182.716 114.801 182.716 114.862C182.716 115.018 183.992 116.299 184.147 116.299C184.216 116.299 184.268 116.334 184.268 116.386C184.268 116.429 184.328 116.473 184.397 116.473C184.466 116.473 184.526 116.508 184.526 116.56C184.526 116.604 184.604 116.647 184.699 116.647C184.794 116.647 184.871 116.682 184.871 116.734C184.871 116.778 184.949 116.821 185.035 116.821C185.13 116.821 185.233 116.856 185.259 116.909C185.328 117.022 188.639 117.022 188.708 116.909C188.734 116.865 188.838 116.821 188.932 116.821C189.019 116.821 189.096 116.795 189.096 116.752C189.096 116.717 189.2 116.639 189.338 116.578C189.467 116.525 189.683 116.386 189.829 116.281C190.269 115.933 191.338 114.836 191.338 114.714C191.338 114.653 191.398 114.522 191.467 114.435C191.536 114.339 191.597 114.191 191.597 114.104C191.597 114.017 191.64 113.947 191.683 113.947C191.735 113.947 191.769 113.851 191.769 113.738C191.769 113.616 191.812 113.494 191.855 113.468C191.907 113.442 191.942 113.198 191.942 112.937C191.942 112.675 191.985 112.466 192.028 112.466C192.166 112.466 192.149 102.999 192.011 102.946C191.95 102.92 195.046 102.894 198.9 102.894C204.599 102.885 205.918 102.903 206.013 102.999C206.074 103.068 206.246 103.269 206.384 103.452C206.531 103.634 206.781 103.931 206.945 104.105C207.108 104.288 207.402 104.619 207.591 104.845C207.781 105.072 208.134 105.464 208.367 105.707C208.609 105.96 208.919 106.308 209.057 106.491C209.204 106.674 209.592 107.11 209.919 107.449C210.256 107.798 210.635 108.225 210.773 108.399C210.911 108.582 211.23 108.948 211.48 109.226C211.928 109.697 212.394 110.219 213.006 110.907C213.153 111.082 213.48 111.439 213.713 111.709C213.955 111.97 214.299 112.371 214.489 112.597C214.679 112.824 215.032 113.215 215.265 113.468C215.507 113.721 215.851 114.113 216.041 114.348C216.921 115.402 218.292 116.647 218.576 116.647C218.628 116.647 218.671 116.682 218.671 116.734C218.671 116.778 218.766 116.821 218.887 116.821C219.007 116.821 219.102 116.856 219.102 116.909C219.102 117.03 222.525 117.03 222.594 116.909C222.62 116.856 222.723 116.821 222.818 116.821C222.905 116.821 222.982 116.795 222.982 116.752C222.982 116.717 223.112 116.63 223.267 116.569C223.413 116.499 223.603 116.377 223.672 116.299C223.741 116.229 223.922 116.09 224.06 116.003C224.207 115.907 224.396 115.741 224.491 115.619C224.586 115.498 224.793 115.271 224.948 115.114C225.095 114.957 225.224 114.775 225.224 114.714C225.224 114.653 225.284 114.522 225.353 114.435C225.422 114.339 225.483 114.191 225.483 114.104C225.483 114.017 225.526 113.947 225.569 113.947C225.621 113.947 225.655 113.825 225.655 113.686C225.655 113.538 225.698 113.425 225.741 113.425C225.793 113.425 225.828 113.233 225.828 112.998C225.828 112.754 225.871 112.536 225.914 112.51C225.966 112.484 226 112.284 226 112.074C226 111.865 225.966 111.665 225.914 111.639C225.871 111.613 225.828 111.395 225.828 111.16C225.828 110.925 225.793 110.707 225.741 110.681C225.698 110.655 225.655 110.515 225.655 110.367C225.655 110.228 225.621 110.115 225.569 110.115C225.526 110.115 225.465 109.975 225.431 109.81C225.405 109.644 225.345 109.505 225.302 109.505C225.258 109.505 225.224 109.453 225.224 109.383C225.224 109.313 225.155 109.2 225.069 109.139C224.983 109.078 224.819 108.895 224.698 108.73C224.586 108.564 224.319 108.242 224.103 108.016C223.888 107.798 223.629 107.493 223.517 107.345C223.405 107.197 223.094 106.848 222.827 106.561C222.56 106.282 222.18 105.864 221.991 105.629C221.801 105.394 221.413 104.958 221.128 104.654C220.844 104.357 220.456 103.931 220.266 103.704C220.076 103.486 219.766 103.129 219.576 102.92C219.119 102.415 218.438 101.657 218.067 101.239C217.904 101.048 217.636 100.76 217.481 100.595C217.205 100.29 217.205 100.281 217.395 100.22C217.498 100.194 217.628 100.116 217.688 100.055C217.748 100.002 217.998 99.8194 218.257 99.6539C218.507 99.4972 218.774 99.2968 218.852 99.2097C218.93 99.1226 219.016 99.053 219.042 99.053C219.093 99.053 219.516 98.6871 219.93 98.2865C220.042 98.182 220.154 98.0949 220.18 98.0949C220.249 98.0949 221.43 96.9016 221.43 96.8319C221.43 96.8058 221.516 96.6838 221.628 96.5706C222.12 96.0219 222.206 95.9173 222.206 95.8651C222.206 95.839 222.318 95.7083 222.456 95.5777C222.586 95.4557 222.723 95.2641 222.758 95.1509C222.792 95.0463 222.861 94.9592 222.905 94.9592C222.948 94.9592 222.982 94.907 222.982 94.846C222.982 94.785 223.06 94.6457 223.155 94.5412C223.249 94.4366 223.327 94.3147 223.327 94.2624C223.327 94.2189 223.362 94.1753 223.396 94.1753C223.439 94.1753 223.62 93.8705 223.81 93.496C223.991 93.1301 224.172 92.8079 224.207 92.7991C224.25 92.7817 224.276 92.6685 224.276 92.5553C224.276 92.442 224.31 92.3462 224.353 92.3462C224.431 92.3462 224.56 92.0152 224.543 91.8498C224.534 91.7975 224.569 91.7278 224.62 91.693C224.664 91.6668 224.707 91.5623 224.707 91.4665C224.707 91.3794 224.75 91.301 224.793 91.301C224.845 91.301 224.879 91.1791 224.879 91.0397C224.879 90.8916 224.922 90.7784 224.965 90.7784C225.017 90.7784 225.052 90.6826 225.052 90.5607C225.052 90.4387 225.095 90.3429 225.138 90.3429C225.189 90.3429 225.224 90.221 225.224 90.0816C225.224 89.9335 225.258 89.8203 225.293 89.8203C225.371 89.8203 225.543 88.8361 225.621 87.9651C225.646 87.6951 225.707 87.4686 225.75 87.4686C225.793 87.4686 225.828 87.1202 225.828 86.6934C225.828 86.2579 225.871 85.8834 225.914 85.8572C226.026 85.7876 226.026 84.1327 225.922 84.0194C225.879 83.9759 225.819 83.5839 225.793 83.1571C225.733 82.0684 225.431 80.1522 225.284 80.0128C225.25 79.978 225.224 79.8386 225.224 79.708C225.224 79.5773 225.189 79.4379 225.138 79.4118C225.095 79.3857 225.052 79.2637 225.052 79.1418C225.052 79.0286 225.017 78.9328 224.965 78.9328C224.922 78.9328 224.879 78.8631 224.879 78.7673C224.879 78.6802 224.819 78.4885 224.75 78.3579C224.681 78.2185 224.62 78.0443 224.62 77.9659C224.62 77.7917 224.422 77.365 224.345 77.365C224.301 77.365 224.276 77.2866 224.276 77.1908C224.276 77.0949 224.241 77.0165 224.207 77.0165C224.163 77.0165 224.086 76.8772 224.017 76.7117C223.948 76.5462 223.87 76.4068 223.827 76.4068C223.793 76.4068 223.758 76.3285 223.758 76.2414C223.758 76.1455 223.698 76.0149 223.629 75.9365C223.56 75.8668 223.5 75.771 223.5 75.7188C223.5 75.6665 223.465 75.6229 223.431 75.6229C223.387 75.6229 223.301 75.5184 223.232 75.3791C223.163 75.2484 223.043 75.0655 222.956 74.9697C222.87 74.8739 222.784 74.7084 222.758 74.6039C222.723 74.4906 222.672 74.4297 222.629 74.4558C222.586 74.4819 222.551 74.4645 222.551 74.4122C222.551 74.2642 221.353 72.8531 220.585 72.1041C219.568 71.1111 219.456 71.0066 219.395 71.0066C219.361 71.0066 219.275 70.9369 219.197 70.8498C218.99 70.6234 218.438 70.2227 218.335 70.2227C218.283 70.2227 218.24 70.1792 218.24 70.1356C218.24 70.0834 218.197 70.0485 218.145 70.0485C218.085 70.0485 217.981 69.9788 217.904 69.8917C217.826 69.8133 217.602 69.6653 217.403 69.5695C217.197 69.4737 217.033 69.3691 217.033 69.3256C217.033 69.2907 216.972 69.2646 216.903 69.2646C216.834 69.2646 216.774 69.2211 216.774 69.1775C216.774 69.1253 216.696 69.0904 216.602 69.0904C216.507 69.0904 216.429 69.0469 216.429 69.0033C216.429 68.951 216.369 68.9162 216.3 68.9162C216.231 68.9162 216.17 68.8814 216.17 68.8378C216.17 68.7943 216.05 68.7246 215.895 68.6985C215.748 68.6636 215.489 68.5591 215.334 68.472C215.17 68.3762 214.989 68.3065 214.92 68.3065C214.851 68.3065 214.791 68.263 214.791 68.2194C214.791 68.1671 214.713 68.1323 214.618 68.1323C214.524 68.1323 214.446 68.0975 214.446 68.0626C214.446 68.0017 213.894 67.8536 213.179 67.7316C213.023 67.6968 212.894 67.6445 212.894 67.601C212.894 67.5574 212.756 67.5226 212.592 67.5226C212.428 67.5226 212.29 67.4791 212.29 67.4355C212.29 67.3832 212.118 67.3484 211.902 67.3484C211.687 67.3484 211.514 67.3049 211.514 67.2613C211.514 67.209 211.282 67.1742 210.997 67.1742C210.713 67.1742 210.48 67.1394 210.48 67.0871C210.48 67.0261 206.281 67 198.055 67C189.803 67 185.656 67.0261 185.69 67.0871ZM208.669 77.2691C208.669 77.304 209.005 77.365 209.428 77.3911C210.109 77.4433 210.73 77.5914 210.876 77.7395C210.911 77.7743 211.014 77.8005 211.101 77.8005C211.187 77.8005 211.256 77.8353 211.256 77.8876C211.256 77.9311 211.333 77.9747 211.428 77.9747C211.523 77.9747 211.601 78.0095 211.601 78.0618C211.601 78.1053 211.661 78.1489 211.73 78.1489C211.799 78.1489 211.859 78.1837 211.859 78.236C211.859 78.2795 211.937 78.3231 212.023 78.3231C212.118 78.3231 212.247 78.384 212.325 78.4537C212.394 78.5234 212.48 78.5844 212.506 78.5844C212.54 78.5844 212.67 78.6976 212.791 78.8282C212.92 78.9676 213.153 79.1505 213.308 79.2376C213.454 79.3334 213.61 79.4728 213.636 79.5599C213.661 79.647 213.713 79.7167 213.756 79.7167C213.799 79.7167 213.851 79.7951 213.886 79.8822C213.911 79.978 214.006 80.0738 214.092 80.1086C214.17 80.1347 214.308 80.3089 214.394 80.5006C214.481 80.6922 214.584 80.849 214.627 80.849C214.67 80.849 214.705 80.9099 214.705 80.9796C214.705 81.0493 214.748 81.1103 214.791 81.1103C214.843 81.1103 214.877 81.1887 214.877 81.2845C214.877 81.3803 214.912 81.4587 214.955 81.4587C214.998 81.4587 215.058 81.598 215.084 81.7635C215.119 81.929 215.179 82.0684 215.222 82.0684C215.274 82.0684 215.308 82.1642 215.308 82.2774C215.308 82.3994 215.343 82.5126 215.386 82.5387C215.61 82.6781 215.955 85.7266 215.748 85.7266C215.688 85.7266 215.653 85.9095 215.653 86.2056C215.653 86.4669 215.619 86.6847 215.567 86.6847C215.524 86.6847 215.481 86.8241 215.481 86.9895C215.481 87.155 215.446 87.2944 215.394 87.2944C215.351 87.2944 215.308 87.3902 215.308 87.5122C215.308 87.6341 215.274 87.7299 215.231 87.7299C215.188 87.7299 215.127 87.8867 215.093 88.0783C215.058 88.2699 214.998 88.4267 214.955 88.4267C214.912 88.4267 214.877 88.5051 214.877 88.6009C214.877 88.6967 214.843 88.7751 214.791 88.7751C214.748 88.7751 214.705 88.8187 214.705 88.8622C214.705 88.9145 214.627 89.0364 214.532 89.1409C214.437 89.2454 214.36 89.3848 214.36 89.4458C214.36 89.5155 214.325 89.5416 214.274 89.5155C214.222 89.4893 214.213 89.5242 214.239 89.5939C214.265 89.6722 214.248 89.7332 214.205 89.7332C214.075 89.7332 213.696 90.1252 213.636 90.3255C213.61 90.4126 213.454 90.552 213.308 90.6478C213.153 90.7349 212.92 90.9178 212.791 91.0571C212.67 91.1878 212.54 91.301 212.506 91.301C212.48 91.301 212.394 91.362 212.325 91.4317C212.247 91.5014 212.118 91.5623 212.023 91.5623C211.937 91.5623 211.859 91.5972 211.859 91.6494C211.859 91.693 211.799 91.7365 211.73 91.7365C211.661 91.7365 211.601 91.7714 211.601 91.8236C211.601 91.8672 211.523 91.9107 211.428 91.9107C211.333 91.9107 211.256 91.9456 211.256 91.9978C211.256 92.0414 211.161 92.0849 211.04 92.0849C210.919 92.0849 210.825 92.1111 210.825 92.1546C210.825 92.2765 210.092 92.4507 209.385 92.4943C208.988 92.5204 208.669 92.5814 208.669 92.6162C208.669 92.6598 204.901 92.6946 200.288 92.6946C193.77 92.6946 191.933 92.6685 192.011 92.5901C192.157 92.442 192.157 77.4433 192.011 77.2953C191.933 77.2169 193.77 77.1908 200.288 77.1908C204.901 77.1908 208.669 77.2256 208.669 77.2691Z" fill="#133115"/>
<path d="M236.852 67.0871C236.852 67.1306 236.74 67.1742 236.593 67.1742C236.455 67.1742 236.335 67.209 236.335 67.2613C236.335 67.3049 236.24 67.3484 236.119 67.3484C235.998 67.3484 235.904 67.3745 235.904 67.4094C235.904 67.4529 235.817 67.5226 235.705 67.5749C235.162 67.8449 234.878 68.0452 234.421 68.5068C234.145 68.7768 233.921 69.0469 233.921 69.1078C233.921 69.1601 233.844 69.2733 233.74 69.3604C233.645 69.4475 233.585 69.5608 233.62 69.6043C233.645 69.6566 233.628 69.7001 233.585 69.7001C233.533 69.7001 233.49 69.7785 233.49 69.8743C233.49 69.9701 233.456 70.0485 233.404 70.0485C233.361 70.0485 233.318 70.1443 233.318 70.2576C233.318 70.3795 233.283 70.5014 233.232 70.5276C233.189 70.5537 233.145 70.7192 233.145 70.8847C233.145 71.0502 233.102 71.1808 233.059 71.1808C232.956 71.1808 232.999 112.641 233.102 113.224C233.137 113.433 233.197 113.599 233.24 113.599C233.283 113.599 233.318 113.712 233.318 113.86C233.318 113.999 233.352 114.121 233.395 114.121C233.439 114.121 233.499 114.235 233.533 114.374C233.559 114.505 233.663 114.705 233.749 114.801C233.844 114.905 233.921 115.018 233.921 115.053C233.921 115.123 234.714 115.968 234.99 116.186C235.059 116.247 235.162 116.299 235.214 116.299C235.257 116.299 235.3 116.334 235.3 116.386C235.3 116.429 235.378 116.473 235.473 116.473C235.567 116.473 235.645 116.508 235.645 116.56C235.645 116.604 235.723 116.647 235.817 116.647C235.912 116.647 235.99 116.682 235.99 116.734C235.99 116.778 236.067 116.821 236.162 116.821C236.257 116.821 236.335 116.856 236.335 116.909C236.335 117.03 273.62 117.03 273.698 116.909C273.724 116.856 273.844 116.821 273.965 116.821C274.077 116.821 274.172 116.778 274.172 116.734C274.172 116.682 274.224 116.647 274.284 116.647C274.344 116.647 274.482 116.569 274.586 116.473C274.689 116.377 274.81 116.299 274.853 116.299C274.973 116.299 276.137 115.088 276.197 114.897C276.232 114.809 276.292 114.731 276.335 114.731C276.378 114.731 276.413 114.653 276.413 114.557C276.413 114.461 276.456 114.383 276.499 114.383C276.551 114.383 276.585 114.322 276.585 114.252C276.585 114.182 276.628 114.121 276.671 114.121C276.723 114.121 276.758 113.999 276.758 113.851C276.758 113.712 276.792 113.607 276.835 113.634C276.878 113.668 276.939 113.355 276.973 112.945C277.051 112.083 276.947 110.35 276.835 110.428C276.792 110.454 276.758 110.376 276.758 110.254C276.758 110.132 276.723 110.028 276.671 110.028C276.628 110.028 276.585 109.949 276.585 109.853C276.585 109.758 276.551 109.679 276.499 109.679C276.456 109.679 276.413 109.601 276.413 109.505C276.413 109.409 276.378 109.331 276.344 109.331C276.309 109.331 276.215 109.226 276.137 109.087C275.947 108.765 275.344 108.111 275.241 108.111C275.198 108.111 275.103 108.033 275.034 107.937C274.965 107.841 274.861 107.763 274.801 107.763C274.741 107.763 274.689 107.737 274.689 107.693C274.689 107.658 274.56 107.58 274.413 107.51C274.258 107.449 274.017 107.336 273.879 107.275C273.741 107.206 273.534 107.153 273.422 107.153C273.319 107.153 273.224 107.11 273.224 107.066C273.224 107.005 268.156 106.979 258.184 106.979H243.144V102.058V97.1367H256.762C264.665 97.1367 270.38 97.1019 270.38 97.0584C270.38 97.0148 270.509 96.9625 270.664 96.9364C271.043 96.8754 271.586 96.6751 271.586 96.5967C271.586 96.5532 271.647 96.527 271.715 96.527C271.784 96.527 271.845 96.4922 271.845 96.4574C271.845 96.4225 271.957 96.318 272.103 96.2396C272.448 96.0306 273.284 95.177 273.353 94.9592C273.379 94.8634 273.448 94.785 273.491 94.785C273.534 94.785 273.569 94.7154 273.569 94.6283C273.569 94.5499 273.646 94.3844 273.741 94.2624C273.836 94.1405 273.913 93.9576 273.913 93.8531C273.913 93.7485 273.956 93.6353 273.999 93.6092C274.051 93.583 274.086 93.4437 274.086 93.3043C274.086 93.165 274.129 93.0256 274.172 92.9995C274.224 92.9733 274.258 92.564 274.258 92.0762C274.258 91.5623 274.224 91.2139 274.172 91.2139C274.129 91.2139 274.086 91.0571 274.086 90.8655C274.086 90.6739 274.051 90.5171 273.999 90.5171C273.956 90.5171 273.913 90.3952 273.913 90.2558C273.913 90.1077 273.879 89.9945 273.827 89.9945C273.784 89.9945 273.741 89.9335 273.741 89.8639C273.741 89.7942 273.706 89.7332 273.655 89.7332C273.612 89.7332 273.569 89.6722 273.569 89.5939C273.569 89.5242 273.517 89.4022 273.465 89.3413C273.232 89.08 273.138 88.958 273.138 88.9058C273.138 88.8099 272.396 88.1044 272.121 87.9477C271.965 87.8518 271.845 87.7473 271.845 87.7125C271.845 87.6776 271.784 87.6428 271.715 87.6428C271.647 87.6428 271.586 87.5993 271.586 87.5557C271.586 87.5034 271.509 87.4686 271.414 87.4686C271.319 87.4686 271.241 87.4338 271.241 87.3989C271.241 87.3641 271.017 87.2683 270.742 87.1812C270.276 87.0418 269.259 87.0331 256.693 87.0331H243.144V82.1119V77.1908H258.184C268.156 77.1908 273.224 77.1646 273.224 77.1036C273.224 77.0514 273.344 77.0165 273.482 77.0165C273.629 77.0165 273.741 76.973 273.741 76.9295C273.741 76.8772 273.836 76.8424 273.956 76.8424C274.077 76.8424 274.172 76.8075 274.172 76.764C274.172 76.7204 274.293 76.6594 274.43 76.6246C274.577 76.5898 274.689 76.5288 274.689 76.4852C274.689 76.4417 274.723 76.4068 274.775 76.4068C274.913 76.4068 275.758 75.6142 275.982 75.2745C276.051 75.17 276.18 74.9871 276.266 74.8826C276.344 74.7694 276.413 74.6387 276.413 74.5864C276.413 74.5342 276.456 74.4906 276.499 74.4906C276.551 74.4906 276.585 74.4122 276.585 74.3164C276.585 74.2206 276.628 74.1422 276.671 74.1422C276.723 74.1422 276.758 74.0377 276.758 73.9158C276.758 73.7938 276.792 73.7154 276.835 73.7416C276.878 73.7764 276.939 73.4193 276.973 72.9664C277.042 72.0431 276.956 70.484 276.835 70.484C276.792 70.484 276.758 70.3882 276.758 70.2663C276.758 70.1443 276.723 70.0485 276.671 70.0485C276.628 70.0485 276.585 69.9701 276.585 69.8743C276.585 69.7785 276.551 69.7001 276.499 69.7001C276.456 69.7001 276.413 69.6391 276.413 69.5695C276.413 69.4998 276.378 69.4388 276.335 69.4388C276.292 69.4388 276.232 69.3691 276.197 69.2733C276.171 69.1862 276.068 69.0207 275.982 68.9075C275.672 68.533 275.292 68.1323 275.241 68.1323C275.215 68.1323 275.111 68.0539 275.008 67.9581C274.904 67.8536 274.732 67.7578 274.629 67.7316C274.517 67.6968 274.43 67.6445 274.43 67.601C274.43 67.5574 274.353 67.5226 274.258 67.5226C274.163 67.5226 274.086 67.4791 274.086 67.4355C274.086 67.3832 274.008 67.3484 273.913 67.3484C273.818 67.3484 273.741 67.3049 273.741 67.2613C273.741 67.209 273.629 67.1742 273.482 67.1742C273.344 67.1742 273.224 67.1306 273.224 67.0871C273.224 67.0261 267.104 67 255.038 67C242.971 67 236.852 67.0261 236.852 67.0871Z" fill="#133115"/>
<path d="M99.3151 72.0864C99.2892 72.1297 99.1687 72.1729 99.0482 72.1729C98.9363 72.1729 98.8416 72.2074 98.8416 72.2593C98.8416 72.3025 98.7641 72.3457 98.678 72.3457C98.4972 72.3457 97.9548 72.605 97.9118 72.7088C97.8945 72.752 97.8429 72.7779 97.7998 72.7779C97.6965 72.7779 96.9475 73.504 96.9475 73.6077C96.9475 73.6509 96.8701 73.746 96.7754 73.8151C96.6807 73.8843 96.6032 73.988 96.6032 74.0485C96.6032 74.109 96.5601 74.1609 96.5085 74.1609C96.4654 74.1609 96.4482 74.1954 96.474 74.2473C96.4999 74.2905 96.4913 74.3337 96.4482 74.3337C96.4138 74.3337 96.3191 74.5325 96.2588 74.7745C96.1899 75.0079 96.1038 75.224 96.0694 75.2499C95.9661 75.3191 95.9833 77.6874 96.0866 77.7479C96.1383 77.7738 96.1727 77.9121 96.1727 78.0591C96.1727 78.1974 96.2072 78.3097 96.2502 78.3097C96.3277 78.3097 96.4568 78.6382 96.4396 78.7678C96.431 78.837 96.5429 78.9753 97.1542 79.6235C97.3694 79.8569 97.5674 80.0384 97.5932 80.0384C97.6191 80.0384 97.731 80.1162 97.8343 80.2113C97.9376 80.315 98.1098 80.4101 98.2131 80.436C98.325 80.4706 98.4111 80.5224 98.4111 80.5657C98.4111 80.6089 98.4886 80.6435 98.5747 80.6435C98.6694 80.6435 98.7727 80.678 98.7985 80.7299C98.8243 80.7731 98.9449 80.8163 99.0568 80.8163C99.1687 80.8163 99.272 80.8595 99.2892 80.9028C99.3323 81.0324 131.582 81.0324 131.625 80.9028C131.642 80.8595 131.772 80.8163 131.909 80.8163C132.047 80.8163 132.159 80.7731 132.159 80.7299C132.159 80.678 132.254 80.6435 132.374 80.6435C132.495 80.6435 132.589 80.6089 132.589 80.5657C132.589 80.5224 132.676 80.4706 132.787 80.436C132.891 80.4101 133.063 80.315 133.166 80.2113C133.27 80.1162 133.381 80.0384 133.407 80.0384C133.485 80.0384 134.053 79.4507 134.053 79.3729C134.053 79.3297 134.13 79.2432 134.225 79.1741C134.32 79.1049 134.397 79.0012 134.397 78.9493C134.397 78.8888 134.492 78.6727 134.613 78.4739C134.733 78.2665 134.828 78.0072 134.828 77.9035C134.828 77.7998 134.871 77.6874 134.914 77.6615C134.966 77.6269 135 77.1256 135 76.4427C135 75.7253 134.966 75.2845 134.914 75.2845C134.871 75.2845 134.828 75.1894 134.828 75.0771C134.828 74.9561 134.793 74.8351 134.742 74.8091C134.699 74.7832 134.656 74.6622 134.656 74.5412C134.656 74.4288 134.621 74.3337 134.578 74.3337C134.535 74.3337 134.466 74.2473 134.432 74.1349C134.397 74.0312 134.303 73.8843 134.217 73.8065C134.122 73.7287 134.053 73.6336 134.053 73.5904C134.053 73.504 133.476 72.9508 133.39 72.9508C133.364 72.9508 133.278 72.8816 133.201 72.7952C133.123 72.7174 132.908 72.5791 132.719 72.484C132.529 72.3976 132.305 72.2939 132.228 72.2507C132.142 72.2074 131.995 72.1729 131.909 72.1729C131.815 72.1729 131.711 72.1297 131.685 72.0864C131.651 72.0259 126.158 72 115.5 72C104.842 72 99.3495 72.0259 99.3151 72.0864Z" fill="#92B774"/>
<path d="M115.836 83.0425C114.786 83.2011 113.691 83.8178 113.044 84.5931C112.65 85.0776 112.177 86.0819 112.072 86.6634C112.011 86.9805 111.993 91.7907 112.002 100.495C112.028 112.15 112.046 113.859 112.16 114.071C112.23 114.212 112.317 114.317 112.361 114.317C112.396 114.317 112.422 114.397 112.422 114.494C112.422 114.591 112.466 114.67 112.51 114.67C112.562 114.67 112.597 114.731 112.597 114.802C112.597 115.031 113.84 116.203 114.392 116.485C115.696 117.172 117.289 117.172 118.593 116.485C119.144 116.203 120.519 114.899 120.422 114.749C120.396 114.705 120.422 114.67 120.466 114.67C120.519 114.67 120.562 114.591 120.562 114.494C120.562 114.397 120.597 114.317 120.632 114.317C120.667 114.317 120.772 114.097 120.851 113.833C120.991 113.375 121 112.335 121 100.231C121 91.8788 120.965 86.9453 120.912 86.6458C120.799 86.0203 120.309 85.0247 119.862 84.5138C118.908 83.4214 117.28 82.8311 115.836 83.0425Z" fill="#92B774"/>
<path fill-rule="evenodd" clip-rule="evenodd" d="M163.565 117.255L163.565 117.255L163.451 117.275C163.311 117.301 163.074 117.344 162.925 117.37C162.162 117.499 160.575 118.04 159.461 118.556C155.568 120.361 152.946 123.498 152.139 127.296C151.929 128.293 151.964 131.043 152.2 131.825C152.709 133.518 154.138 135.091 155.594 135.564C156.48 135.847 157.497 135.959 158.479 135.882C159.917 135.761 160.847 135.349 161.829 134.404L162.346 133.896L162.785 134.335C163.25 134.799 164.188 135.435 164.548 135.521C164.67 135.547 164.811 135.598 164.854 135.633C164.907 135.667 165.197 135.761 165.512 135.847C166.249 136.045 167.538 136.054 168.318 135.856C169.721 135.495 170.195 135.246 171.037 134.438L171.616 133.871L172.089 134.369C172.835 135.151 173.37 135.452 174.536 135.736C175.413 135.951 175.667 135.976 176.369 135.942C176.816 135.916 177.544 135.813 177.991 135.718C178.429 135.615 178.877 135.521 178.973 135.504C179.28 135.435 180.324 134.601 180.771 134.06C181.218 133.518 181.621 132.788 181.858 132.083C182.025 131.585 182.051 129.436 181.902 128.37C181.569 125.981 181.139 124.744 180.122 123.265C178.429 120.799 175.86 118.951 172.615 117.86C171.712 117.559 170.791 117.344 169.283 117.078C168.573 116.957 165.249 116.983 164.416 117.112C164.104 117.161 163.763 117.221 163.565 117.255ZM168.643 119.475C169.309 119.561 170.949 119.922 171.388 120.068C171.73 120.189 171.914 120.24 171.984 120.249C172.019 120.257 172.133 120.318 172.247 120.386C172.352 120.455 172.44 120.49 172.44 120.464C172.44 120.378 174.141 121.263 174.352 121.452C174.457 121.555 174.545 121.607 174.545 121.581C174.545 121.486 175.632 122.346 176.176 122.87C177.289 123.953 178.096 125.225 178.666 126.823C179.298 128.568 179.394 128.998 179.517 130.579C179.561 131.189 179.543 131.284 179.298 131.782C178.912 132.59 178.5 133.003 177.719 133.372C177.088 133.673 176.991 133.69 176.255 133.69C175.597 133.682 175.378 133.647 174.966 133.467C174.413 133.218 173.747 132.659 173.448 132.195C172.966 131.421 172.931 131.267 172.878 128.955L172.835 126.78L172.519 126.471C171.949 125.912 171.011 125.998 170.598 126.652C170.441 126.901 170.423 127.073 170.423 128.379C170.423 131.017 170.186 131.92 169.265 132.762C167.827 134.077 165.512 133.914 164.337 132.401C163.741 131.645 163.679 131.318 163.609 128.92C163.557 126.832 163.548 126.763 163.337 126.445C162.873 125.741 161.838 125.775 161.329 126.514C161.145 126.78 161.128 126.901 161.128 128.018C161.119 131.009 161.11 131.069 160.803 131.696C160.163 133.02 158.76 133.75 157.322 133.51C156.769 133.415 155.866 133.071 155.866 132.951C155.866 132.908 155.822 132.882 155.761 132.882C155.577 132.882 155.05 132.246 154.787 131.679C154.401 130.889 154.358 129.986 154.656 128.998C154.779 128.611 154.971 127.915 155.077 127.468C155.91 124.013 158.637 121.315 162.548 120.068C163.416 119.793 164.004 119.673 165.512 119.45C165.995 119.372 167.994 119.398 168.643 119.475ZM132.492 111.848C132.647 111.623 132.94 111.381 133.208 111.234L133.656 111H137.034C140.387 111 140.405 111 140.836 111.208C141.853 111.684 142.292 112.921 141.775 113.89C141.689 114.054 141.189 114.686 140.672 115.291L139.741 116.382L139.801 116.866C139.896 117.653 140.094 118.233 140.456 118.778C141.439 120.258 143.439 121.261 144.792 120.958C145.602 120.777 145.886 120.335 146.016 119.046C146.085 118.311 146.283 117.87 146.722 117.472C147.317 116.935 148.11 116.823 148.851 117.177C149.377 117.42 149.601 117.662 149.851 118.216C150.015 118.588 150.024 118.726 149.972 119.47C149.86 121.201 149.343 122.438 148.326 123.433C147.136 124.592 145.792 125.077 143.99 124.99C142.809 124.938 142.353 124.826 140.749 124.177C138.974 123.476 138 122.749 137.302 121.625C137.155 121.391 137.026 121.209 137 121.209C136.974 121.209 136.845 121.391 136.707 121.607C135.983 122.758 135.035 123.467 133.251 124.177C131.647 124.826 131.191 124.938 130.01 124.99C128.208 125.077 126.864 124.592 125.674 123.433C124.657 122.438 124.14 121.201 124.028 119.47C123.976 118.726 123.985 118.588 124.149 118.216C124.399 117.662 124.623 117.42 125.149 117.177C125.89 116.823 126.683 116.935 127.278 117.472C127.717 117.87 127.915 118.311 127.984 119.046C128.114 120.335 128.398 120.777 129.208 120.958C130.561 121.261 132.561 120.258 133.544 118.778C133.923 118.216 134.113 117.636 134.199 116.84L134.25 116.321L133.38 115.239C132.234 113.821 132.147 113.656 132.19 112.852C132.216 112.315 132.259 112.168 132.492 111.848ZM155.917 83.0425C154.884 83.2011 153.808 83.8176 153.171 84.5927C152.792 85.0683 152.336 86.0459 152.155 86.7858C152.017 87.3583 152.009 88.3976 152 100.455C152 110.787 152.026 113.535 152.112 113.623C152.164 113.676 152.215 113.816 152.215 113.931C152.215 114.045 152.258 114.134 152.301 114.134C152.353 114.134 152.387 114.195 152.387 114.266C152.387 114.345 152.422 114.451 152.473 114.512C153.859 116.265 154.496 116.714 155.968 116.952C157.415 117.19 159.033 116.529 160.006 115.314C160.402 114.829 160.824 114.028 160.824 113.781C160.824 113.684 160.867 113.587 160.91 113.561C161.03 113.491 161.03 87.2966 160.91 86.6449C160.798 86.0195 160.316 85.0242 159.877 84.5134C158.938 83.4213 157.337 82.8311 155.917 83.0425ZM140.18 72.1729C140.266 72.1729 140.36 72.1297 140.386 72.0864C140.42 72.0259 145.897 72 156.551 72C167.231 72 172.657 72.0259 172.657 72.0864C172.657 72.1297 172.751 72.1729 172.863 72.1729C172.974 72.1729 173.309 72.3025 173.617 72.4667C174.131 72.7347 174.26 72.8211 174.706 73.2101C174.929 73.4002 175.486 74.2473 175.486 74.3856C175.486 74.4547 175.529 74.5066 175.571 74.5066C175.623 74.5066 175.657 74.5844 175.657 74.6795C175.657 74.7746 175.7 74.8523 175.743 74.8523C175.794 74.8523 175.829 74.9647 175.829 75.103C175.829 75.2499 175.871 75.3882 175.914 75.4142C175.966 75.4487 176 75.9155 176 76.5378C176 77.1601 175.966 77.6269 175.914 77.6615C175.871 77.6874 175.829 77.8084 175.829 77.9294C175.829 78.0418 175.794 78.1369 175.743 78.1369C175.7 78.1369 175.657 78.1974 175.657 78.2665C175.657 78.4221 175.331 79.0185 175.194 79.1049C175.143 79.1395 175.134 79.1741 175.177 79.1741C175.22 79.1741 175.169 79.2432 175.074 79.3383C174.971 79.4247 174.886 79.5285 174.886 79.5544C174.886 79.6408 174.654 79.8655 174.569 79.8655C174.526 79.8655 174.44 79.9433 174.371 80.0384C174.303 80.1335 174.2 80.2113 174.14 80.2113C174.08 80.2113 174.029 80.2459 174.029 80.2891C174.029 80.3323 173.934 80.3928 173.814 80.4187C173.694 80.4533 173.6 80.5138 173.6 80.557C173.6 80.6089 173.506 80.6435 173.386 80.6435C173.266 80.6435 173.171 80.678 173.171 80.7299C173.171 80.7731 173.06 80.8163 172.923 80.8163C172.786 80.8163 172.657 80.8595 172.64 80.9028C172.597 81.0324 140.489 81.0324 140.446 80.9028C140.429 80.8595 140.326 80.8163 140.223 80.8163C139.991 80.8163 138.697 80.1767 138.774 80.0989C138.8 80.0643 138.774 80.0384 138.706 80.0384C138.637 80.0384 138.509 79.9174 138.414 79.7791C138.32 79.6322 138.174 79.4939 138.097 79.4679C138.011 79.442 137.943 79.3556 137.943 79.2778C137.943 79.1914 137.866 79.0703 137.771 79.0012C137.677 78.9321 137.6 78.811 137.6 78.7246C137.6 78.6382 137.566 78.569 137.531 78.569C137.429 78.569 137.171 77.6615 137.171 77.3157C137.171 77.1515 137.137 76.9959 137.086 76.97C137.043 76.9441 137 76.7453 137 76.5378C137 76.3304 137.043 76.1316 137.086 76.1056C137.137 76.0797 137.171 75.8636 137.171 75.6216C137.171 75.3882 137.214 75.1981 137.257 75.1981C137.309 75.1981 137.343 75.0944 137.343 74.9734C137.343 74.714 137.574 74.1868 137.789 73.9534C137.874 73.8583 137.943 73.7287 137.943 73.6682C137.943 73.6077 137.969 73.5558 138.011 73.5558C138.046 73.5558 138.243 73.383 138.457 73.1669C138.671 72.9594 138.886 72.7866 138.946 72.7779C138.997 72.7779 139.057 72.7433 139.074 72.7088C139.117 72.605 140.009 72.1729 140.18 72.1729ZM113.052 1.89801C113.67 1.17537 114.657 0.269897 114.983 0.121887C115.146 0.0522461 115.601 0.00871277 116.202 0C117.06 0 117.223 0.026123 117.833 0.2612C118.399 0.478867 118.64 0.644287 119.318 1.27115C121.361 3.14304 123.318 5.58955 124.485 7.74876C124.682 8.10573 125.017 8.67165 125.232 9.0112C125.558 9.53358 126.442 11.2226 127.309 12.9726C128.408 15.2102 129.798 18.597 130.648 21.1132C131.841 24.6567 132.545 27.1468 133.386 30.7774C133.781 32.5099 134.425 36.2102 134.545 37.4378C134.554 37.5152 134.564 37.6112 134.575 37.7139L134.575 37.7142L134.575 37.7145L134.575 37.7147C134.595 37.9006 134.617 38.108 134.639 38.2649C134.665 38.5 134.708 38.9527 134.734 39.2662C134.759 39.5796 134.811 40.1455 134.854 40.5286C135 41.7736 135.051 45.9614 134.94 47.8246C134.708 51.8818 134.373 54.8595 133.892 57.245L133.856 57.4326L133.792 57.7555L133.792 57.7555L133.792 57.7556L133.792 57.7576L133.791 57.7608C133.738 58.0344 133.694 58.2565 133.678 58.3333C133.283 60.3794 132.073 64.8632 131.592 66.0386C131.549 66.1343 131.455 66.4042 131.386 66.648C131.309 66.8831 131.103 67.3532 130.923 67.6841C130.519 68.4415 130.219 68.6331 129.515 68.5896C128.845 68.5373 128.493 68.2587 128.296 67.6144L128.142 67.1269L128.502 66.0995C128.635 65.7409 128.803 65.267 128.949 64.854L128.95 64.853L128.95 64.8514L128.95 64.8505L128.951 64.8494L128.951 64.8475C129.032 64.6212 129.105 64.4136 129.163 64.2537C129.935 62.0858 130.734 58.9602 131.283 55.9826C131.558 54.4677 131.635 53.9366 131.987 50.9328C132.176 49.3396 132.253 43.0099 132.107 41.1555C132.047 40.4241 131.97 39.4229 131.935 38.9179C131.858 37.8296 131.626 35.9142 131.498 35.3047C131.446 35.0609 131.395 34.704 131.378 34.5124C131.36 34.3122 131.317 34.0336 131.292 33.903L131.282 33.8499C131.251 33.6848 131.192 33.3639 131.146 33.0846C131.094 32.7711 130.94 32.1269 130.811 31.648C130.579 30.8122 130.545 30.6555 130.442 29.9328C130.416 29.7587 130.296 29.3147 130.167 28.9316C130.047 28.5572 129.893 28 129.824 27.6866C129.566 26.4677 128.056 21.8271 127.326 19.9813C125.695 15.898 124.159 12.607 122.888 10.4913C122.812 10.3602 122.717 10.1979 122.617 10.029C122.46 9.76057 122.292 9.47547 122.176 9.27239C121.979 8.93284 121.738 8.56717 121.635 8.44527C121.532 8.32339 121.386 8.10573 121.318 7.96642C121.163 7.67039 120.271 6.33832 120.185 6.26866C120.15 6.24254 120.03 6.08583 119.919 5.92039C119.498 5.30225 118.949 4.67537 118.185 3.93533C117.223 3.00374 116.717 2.73384 116.142 2.84702C115.747 2.91667 114.631 4.04851 114.314 4.70149C114.185 4.96269 113.902 5.43285 113.687 5.74628C113.344 6.23384 112.365 8.14055 112.048 8.92413C112.028 8.97345 111.996 9.05177 111.958 9.14748C111.881 9.33903 111.776 9.60028 111.679 9.83831C110.734 12.1455 109.988 14.4353 109.713 15.9067C109.618 16.3943 109.507 16.8644 109.464 16.9515C109.344 17.1866 108.777 19.5373 108.503 21C108.365 21.7052 108.134 22.6891 107.996 23.1766C107.713 24.143 107.61 24.7177 107.43 26.3371C107.361 26.9117 107.267 27.5734 107.215 27.8172C107.164 28.0522 107.086 28.8358 107.043 29.5585C107.001 30.2724 106.923 31.291 106.863 31.8221C106.752 32.9453 106.692 39.4664 106.795 40.3545C106.829 40.6853 106.889 41.0771 106.923 41.2251C106.958 41.3644 106.983 41.643 106.975 41.8346C106.966 42.1828 107.292 45.4478 107.344 45.5348C107.361 45.5609 107.395 45.796 107.43 46.0572C107.455 46.3184 107.533 46.806 107.601 47.1455C107.661 47.4764 107.764 48.0858 107.816 48.495C107.876 48.9042 108.039 49.7052 108.176 50.2799C108.29 50.7285 108.425 51.294 108.52 51.6902L108.52 51.6907L108.556 51.8435L108.588 51.9776C108.837 53.0311 109.67 55.852 110.048 56.9403C110.19 57.3346 110.358 57.81 110.483 58.1625L110.606 58.5075C110.897 59.3346 111.189 60.0833 111.636 61.1629C111.859 61.6853 112.091 62.2599 112.151 62.4254C112.4 63.0784 113.85 65.7512 114.211 66.2127C115.249 67.5448 115.507 68.546 115 69.3122C114.794 69.6343 114.168 70 113.824 70C113.361 70 112.854 69.6343 112.434 68.9988C111.696 67.893 109.378 63.1828 108.812 61.6592C108.743 61.4851 108.451 60.7102 108.168 59.944C107.018 56.9055 105.765 52.5087 105.327 50.0187L105.272 49.7078C105.187 49.2273 105.089 48.677 105.026 48.3644C104.76 46.9714 104.331 43.7935 104.202 42.3134C104.013 40.0846 103.928 33.1194 104.074 31.4739C104.134 30.7338 104.408 28.4179 104.683 26.25C104.752 25.7189 104.872 24.9353 104.94 24.5087L104.995 24.2035C105.054 23.8687 105.11 23.5582 105.129 23.4378C105.155 23.2898 105.198 23.1592 105.232 23.1592C105.267 23.1592 105.275 23.0025 105.258 22.811C105.232 22.5846 105.258 22.4627 105.327 22.4627C105.378 22.4627 105.404 22.4279 105.378 22.3843C105.352 22.3495 105.387 22.0187 105.464 21.6704C105.513 21.415 105.576 21.1017 105.623 20.8644L105.67 20.6256C105.79 19.9552 106.168 18.301 106.451 17.1953C106.597 16.6207 106.786 15.8371 106.872 15.454C107.112 14.4266 107.267 13.9042 107.636 12.8856C107.825 12.3806 108.176 11.4055 108.417 10.709C109.756 6.94777 111.387 3.83955 113.052 1.89801ZM115.59 12.104C116.079 10.8473 116.345 10.2887 116.5 10.1665C116.758 9.95704 116.972 9.94831 117.153 10.1229C117.582 10.568 119.557 14.0241 120.768 16.4504C121.661 18.2483 121.841 18.6236 121.841 18.6672C121.841 18.7196 122.262 19.7407 123.112 21.7306C123.662 23.0398 124.065 24.1569 124.452 25.4835L124.53 25.7343L124.566 25.8521L124.567 25.8548L124.567 25.8549C124.687 26.2402 124.839 26.7276 124.958 27.0981C125.336 28.2415 125.594 29.1928 125.791 30.1528C125.877 30.563 126.083 31.5056 126.264 32.2475C126.822 34.6563 127.431 37.9728 127.534 39.1859C127.56 39.4216 127.62 39.9365 127.672 40.3205C127.929 42.2842 128.05 45.1556 127.981 48.1318C127.947 49.502 127.921 50.6977 127.921 50.7937C127.921 50.8897 127.886 51.457 127.844 52.0592C127.766 53.1589 127.749 53.3509 127.431 55.463C127.328 56.1088 127.225 56.8158 127.2 57.034C127.174 57.2522 127.088 57.6973 127.019 58.0377C126.95 58.3693 126.873 58.7621 126.856 58.9104C126.581 60.7083 125.929 63.2219 125.027 65.9798C124.22 68.4497 123.954 68.9734 123.164 69.5145C122.58 69.9247 121.85 70.0818 121.077 69.9596C119.995 69.7938 119.325 69.2352 118.587 67.8912C117.668 66.2155 116.217 63.2219 115.676 61.8778C115.564 61.59 115.392 61.189 115.307 60.9881L115.306 60.9877L115.306 60.9876C115.22 60.7869 115.143 60.5949 115.143 60.5687C115.143 60.5338 115.092 60.3854 115.023 60.237C114.714 59.5214 113.838 56.8856 113.383 55.2885C112.722 52.9669 112 49.598 111.708 47.4423L111.694 47.3396C111.647 47.0167 111.603 46.7079 111.58 46.6132C111.554 46.5084 111.502 46.0371 111.451 45.5571C111.408 45.0771 111.33 44.3265 111.279 43.8989C111.159 42.7206 111.03 39.5612 111.004 37.004C110.987 35.3458 111.021 34.3159 111.133 33.1639C111.219 32.2998 111.279 31.4358 111.279 31.2438C111.27 31.0518 111.27 30.851 111.288 30.8074C111.296 30.755 111.313 30.5805 111.322 30.4146C111.356 29.6815 111.476 28.7564 111.597 28.2502C111.665 27.9447 111.708 27.6305 111.683 27.5433C111.648 27.3862 111.786 26.3563 111.966 25.4399C112.017 25.1781 112.095 24.7068 112.138 24.3926C112.181 24.0784 112.275 23.6245 112.344 23.3889C112.421 23.1445 112.627 22.2456 112.816 21.3815C113.52 18.1698 114.456 15.0365 115.59 12.104ZM153.548 19.0465C153.357 19.0817 153.018 19.1256 152.775 19.1519C151.672 19.2749 149.431 19.802 149.431 19.9337C149.431 19.9777 149.362 20.004 149.275 20.004C149.188 20.004 149.084 20.0304 149.049 20.0655C149.014 20.1094 148.953 20.1358 148.927 20.1445C148.893 20.1445 148.649 20.2587 148.389 20.3817C148.128 20.5135 147.868 20.6189 147.816 20.6189C147.772 20.6189 147.546 20.7331 147.32 20.8824C147.095 21.023 146.912 21.1196 146.912 21.0845C146.912 21.0493 146.86 21.0932 146.808 21.1723C146.747 21.2514 146.643 21.3216 146.574 21.3392C146.504 21.3568 146.374 21.4358 146.287 21.5149C146.2 21.6027 146.078 21.673 146.009 21.673C145.939 21.673 145.861 21.7345 145.835 21.8135C145.809 21.8838 145.748 21.919 145.696 21.8926C145.653 21.8662 145.609 21.875 145.609 21.919C145.609 21.9629 145.462 22.1034 145.279 22.2264C144.689 22.6129 142.995 24.2731 142.509 24.9407C142.239 25.2921 141.996 25.5907 141.953 25.6083C141.909 25.6259 141.875 25.6786 141.875 25.7313C141.875 25.784 141.675 26.0914 141.44 26.4165C141.041 26.9611 140.068 28.8057 139.92 29.2889C139.894 29.4031 139.833 29.4909 139.799 29.4909C139.764 29.4909 139.729 29.5788 139.729 29.6842C139.72 29.7984 139.668 29.895 139.616 29.9126C139.573 29.9301 139.547 29.9828 139.573 30.018C139.599 30.0619 139.581 30.1761 139.529 30.2815C139.499 30.3484 139.453 30.4405 139.412 30.5199L139.412 30.5206C139.394 30.5557 139.378 30.5884 139.364 30.6153C139.243 30.87 138.956 32.012 138.748 33.0485C138.643 33.5756 138.522 34.085 138.478 34.1729C138.435 34.2607 138.418 34.3661 138.444 34.4101C138.47 34.454 138.435 34.8493 138.365 35.306C137.931 38.1082 137.879 42.1138 138.235 45.3464C138.279 45.7329 138.331 46.2423 138.348 46.4883C138.409 47.1823 138.565 48.5438 138.669 49.1236C139.086 51.6183 139.46 53.4981 139.747 54.5697C139.903 55.1495 140.111 55.9576 140.216 56.3705C140.311 56.7834 140.476 57.4158 140.58 57.776C140.676 58.1361 140.876 58.8652 141.023 59.401C141.336 60.5781 141.762 61.9133 141.961 62.3877C142.048 62.5809 142.205 62.9762 142.318 63.2661C142.409 63.5206 142.601 64.0053 142.764 64.417L142.764 64.4171L142.83 64.5837C143.012 65.0141 143.186 65.4709 143.221 65.5939C143.256 65.7169 143.464 66.1912 143.672 66.648C143.89 67.1048 144.142 67.6757 144.237 67.9217C144.576 68.8089 144.949 69.4677 145.236 69.7225C145.488 69.9508 145.601 69.986 146.026 69.986C146.634 69.986 147.06 69.7752 147.277 69.3623C147.572 68.8001 147.494 68.44 146.686 66.5689C145.557 63.9688 145.488 63.8019 145.01 62.4755C144.55 61.193 144.02 59.5416 143.064 56.4144C142.5 54.561 142.257 53.5156 142.014 51.9784C141.967 51.6739 141.882 51.1508 141.797 50.6277C141.755 50.3661 141.712 50.1045 141.675 49.8702C141.553 49.1675 141.414 48.2364 141.362 47.8059C141.31 47.3667 141.206 46.4971 141.128 45.8734C141.049 45.2409 140.954 44.1956 140.91 43.5456C140.806 41.8678 140.902 36.975 141.049 36.2547C141.075 36.1318 141.136 35.7365 141.188 35.3763C141.414 33.7073 141.848 31.9593 142.283 30.9403C143.377 28.3665 144.454 26.7503 146.131 25.1691C147.294 24.0623 149.049 23.0697 150.864 22.4724C152.532 21.919 154.399 21.7345 155.78 21.9717C156.064 22.0158 156.557 22.0981 157.07 22.1837L157.075 22.1846L157.077 22.1849C157.378 22.2352 157.685 22.2865 157.961 22.3318C159.064 22.5075 159.481 22.6217 160.106 22.9028C161.765 23.6319 162.842 24.2907 163.988 25.2394C165.066 26.1354 167.22 28.551 168.939 30.7734C169.773 31.8626 171.319 34.0148 171.319 34.0938C171.319 34.1202 171.441 34.2695 171.58 34.4276C171.727 34.5857 171.84 34.7439 171.84 34.7878C171.84 34.8317 172.023 35.1479 172.24 35.4905C173.109 36.8433 174.142 38.644 174.967 40.2515C175.323 40.9279 175.636 41.4989 175.671 41.5252C175.81 41.6219 176.913 44.2044 177 44.6436C177.026 44.7402 177.217 45.2937 177.425 45.8734C177.755 46.7782 178.233 48.2715 178.381 48.86C178.39 48.8927 178.408 48.9664 178.434 49.0674L178.435 49.0708C178.485 49.2688 178.561 49.5695 178.641 49.8702C178.945 51.0297 179.119 52.0223 179.223 53.2082C179.397 55.2373 179.284 57.1874 178.963 57.5124C178.459 58.0219 175.011 57.9692 172.883 57.4246C170.572 56.8448 169.999 56.6779 169.365 56.4408L169.143 56.3589C168.753 56.2152 168.219 56.0182 167.845 55.8874C165.413 55.0353 160.879 52.8656 158.03 51.1878C156.771 50.45 155.546 49.756 154.981 49.4661C154.764 49.3519 154.512 49.1763 154.425 49.0796C154.33 48.9742 153.609 48.456 152.819 47.9201C152.028 47.3843 151.29 46.8572 151.168 46.7518C151.047 46.6464 150.526 46.2511 149.996 45.8734C149.475 45.4957 148.893 45.0653 148.719 44.9159C148.545 44.7666 148.293 44.5558 148.154 44.4504C146.825 43.4138 145.54 42.351 144.611 41.4989C144.411 41.3232 144.202 41.1739 144.159 41.1739C144.072 41.1739 144.107 41.5604 144.359 43.326C144.55 44.7315 145.158 48.412 145.314 49.1236C145.384 49.4574 145.479 49.9317 145.523 50.1777C145.844 52.0663 146.695 55.6063 147.416 58.1273L147.527 58.5255L147.528 58.5263C147.712 59.1868 147.913 59.9053 148.007 60.2619C148.12 60.6835 148.25 61.114 148.302 61.2106C148.354 61.3072 148.571 61.8694 148.78 62.4579C149.535 64.6101 149.666 64.9614 150.256 66.3405C150.302 66.4463 150.412 66.7309 150.53 67.0375L150.53 67.0376C150.569 67.1386 150.608 67.2419 150.647 67.3419C151.42 69.3096 152.254 69.9333 154.121 69.9245C155.52 69.9245 155.859 69.7225 157.083 68.2204C157.248 68.0095 157.552 67.5967 157.743 67.3068C158.143 66.7007 159.793 63.4418 160.097 62.6512C160.21 62.3613 160.558 61.4478 160.87 60.6133C161.574 58.751 161.93 58.2415 162.772 57.855C163.163 57.6706 163.459 57.6003 163.806 57.6003C164.327 57.6003 164.345 57.6179 164.188 58.1273C164.166 58.2138 164.113 58.4039 164.048 58.6378L164.047 58.6397C163.987 58.8571 163.916 59.1122 163.85 59.3571C163.624 60.2004 163.224 61.439 162.807 62.5633C162.39 63.6789 162.164 64.2587 162.025 64.5837C161.939 64.777 161.704 65.3304 161.504 65.8135C161.296 66.2966 160.957 67.0433 160.749 67.4737C160.314 68.396 160.271 68.8353 160.575 69.292C161.113 70.109 162.164 70.2407 162.772 69.5731C162.955 69.3711 163.936 67.4737 163.936 67.3244C163.936 67.298 164.075 66.9818 164.24 66.6216C164.405 66.2615 164.544 65.9277 164.544 65.875C164.544 65.8311 164.649 65.5588 164.77 65.2777C164.979 64.8033 165.231 64.1181 165.934 62.1241C166.273 61.1403 166.785 59.4625 166.855 59.0672C166.881 58.8916 166.942 58.7159 166.994 58.6895C167.037 58.6632 167.454 58.7774 167.932 58.953C169.018 59.3571 172.891 60.3497 174.194 60.5518C174.837 60.6572 175.697 60.7099 176.661 60.7099C178.372 60.7187 179.206 60.5518 180.127 60.0159C180.908 59.5679 181.186 59.2781 181.534 58.5402C181.777 58.0131 181.855 57.7145 181.916 57.0557C182.046 55.7117 182.02 52.7338 181.872 51.9784C181.835 51.7836 181.785 51.5092 181.734 51.233L181.733 51.2289C181.69 50.9957 181.648 50.7614 181.612 50.5729C181.377 49.2465 180.717 46.8924 180.222 45.6099C180.196 45.5382 180.166 45.454 180.133 45.3633L180.132 45.3625C180.032 45.0867 179.91 44.7496 179.831 44.5119C179.718 44.1956 179.562 43.7828 179.484 43.5895C179.431 43.4579 179.353 43.2612 179.282 43.0797L179.189 42.8429C178.702 41.6043 177.278 38.5123 177.061 38.24C177.017 38.1873 176.757 37.7041 176.487 37.1771C175.818 35.8946 174.351 33.435 173.43 32.0559C172.744 31.0369 170.954 28.5686 170.564 28.1206C170.477 28.0152 170.016 27.4618 169.539 26.8908C167.741 24.7211 165.96 23.0785 163.728 21.5237C163.05 21.0493 162.885 20.9615 161.765 20.4169C160.436 19.7756 159.394 19.4945 157.161 19.1607C156.145 19.0114 154.156 18.9499 153.548 19.0465ZM102.656 117.738C103.27 117.541 104.525 117.267 105.64 117.087C106.438 116.959 109.465 116.976 110.387 117.113C112.159 117.378 113.238 117.669 114.782 118.294C118.082 119.621 120.749 122.069 122.039 124.945C122.653 126.306 123.048 128.643 122.995 130.612C122.973 131.315 122.971 131.634 122.893 131.934C122.815 132.236 122.659 132.518 122.328 133.154C122.083 133.634 121.416 134.387 120.863 134.823C119.582 135.825 118.099 136.176 116.213 135.919C115.054 135.756 114.142 135.303 113.273 134.455L112.615 133.813L111.983 134.421C111.264 135.106 110.29 135.645 109.334 135.876C108.737 136.022 107.614 136.005 106.605 135.842C105.675 135.688 104.429 134.977 103.692 134.173L103.367 133.822L102.902 134.276C101.621 135.525 100.27 135.996 98.2954 135.876C97.3039 135.816 96.6809 135.637 95.8649 135.191C94.5049 134.447 93.5485 133.197 93.1273 131.648C92.9518 131.006 92.9606 127.95 93.1361 127.128C94.0662 122.771 97.497 119.381 102.656 117.738ZM118.792 124.894C117.064 122.009 113.861 120.066 109.939 119.518C109.114 119.407 107.079 119.364 106.517 119.45C104.955 119.681 104.385 119.801 103.499 120.083C100.41 121.076 98.0497 122.985 96.7862 125.502C96.3475 126.366 95.9 127.684 95.9 128.112C95.8912 128.232 95.8123 128.549 95.7158 128.806C95.3297 129.867 95.3385 130.783 95.7596 131.673C96.1983 132.615 97.146 133.3 98.3042 133.531C99.3483 133.728 100.796 133.154 101.463 132.255C102.042 131.485 102.121 131.074 102.13 128.823C102.13 127.282 102.156 126.777 102.253 126.597C102.718 125.724 104.008 125.716 104.455 126.58C104.525 126.726 104.578 127.479 104.613 128.908C104.666 130.74 104.692 131.083 104.85 131.485C105.719 133.736 108.781 134.335 110.413 132.564C111.246 131.656 111.431 130.894 111.431 128.335C111.431 126.683 111.492 126.477 112.089 126.204C112.598 125.964 113.124 126.058 113.528 126.443L113.844 126.751L113.887 128.917C113.94 131.262 113.975 131.425 114.519 132.204C115.169 133.146 116.116 133.634 117.31 133.634C117.968 133.634 118.126 133.599 118.626 133.36C119.512 132.949 120.073 132.358 120.389 131.528C120.582 131.014 120.591 130.698 120.468 129.816C120.214 128.112 119.547 126.144 118.792 124.894Z" fill="#92B774"/>
</svg>
