<?xml version="1.0" standalone="no"?>
<!DOCTYPE svg PUBLIC "-//W3C//DTD SVG 20010904//EN"
 "http://www.w3.org/TR/2001/REC-SVG-20010904/DTD/svg10.dtd">
<svg version="1.0" xmlns="http://www.w3.org/2000/svg"
 width="3456.000000pt" height="1066.000000pt" viewBox="0 0 3456.000000 1066.000000"
 preserveAspectRatio="xMidYMid meet">
<metadata>
Created by potrace 1.16, written by Peter Selinger 2001-2019
</metadata>
<g transform="translate(0.000000,1066.000000) scale(0.100000,-0.100000)"
fill="#000000" stroke="none">
<path d="M18390 10653 c-73 -12 -185 -49 -265 -86 -161 -75 -426 -247 -510
-332 -27 -28 -88 -82 -135 -120 -129 -105 -223 -187 -245 -215 -11 -14 -51
-60 -90 -103 -38 -43 -106 -122 -149 -175 -44 -53 -91 -108 -106 -122 -14 -14
-68 -81 -120 -150 -52 -69 -120 -156 -152 -193 -39 -45 -81 -114 -127 -205
-38 -75 -113 -220 -168 -322 -82 -153 -105 -206 -132 -304 -18 -65 -46 -153
-62 -195 -64 -165 -121 -442 -154 -747 -15 -140 -15 -161 0 -280 43 -338 67
-456 142 -688 38 -120 140 -384 154 -402 13 -16 48 -232 58 -359 4 -60 9 -219
10 -353 2 -225 0 -251 -24 -363 -28 -133 -40 -161 -116 -268 -175 -248 -425
-384 -736 -398 l-123 -6 0 -383 0 -384 285 0 285 0 0 -989 c0 -1029 8 -1317
40 -1507 41 -240 137 -422 315 -598 207 -205 507 -340 865 -391 145 -20 608
-20 762 0 737 97 1066 471 1127 1280 6 77 11 292 11 478 l0 337 -379 0 -379 0
-5 -407 c-5 -431 -14 -536 -58 -674 -27 -86 -80 -156 -144 -188 -68 -36 -199
-37 -261 -4 -93 49 -142 145 -164 315 -6 52 -10 498 -10 1215 l0 1133 605 0
605 0 0 385 0 385 -89 0 c-220 0 -470 88 -667 235 -221 165 -299 289 -288 456
6 82 28 224 44 279 12 44 111 166 141 175 40 13 272 171 332 226 77 70 168
220 290 474 120 251 165 386 217 645 54 269 76 446 91 720 13 255 7 411 -21
585 -11 66 -33 221 -50 345 -17 124 -41 281 -55 350 -37 191 -48 351 -30 447
14 74 36 248 90 723 29 247 33 456 10 539 -16 60 -73 151 -110 175 -20 13 -54
16 -177 15 -84 -1 -164 -4 -178 -6z m-500 -1708 c25 -31 -10 -346 -64 -562
-45 -184 -56 -266 -56 -423 0 -124 1 -132 41 -247 22 -65 46 -140 54 -168 35
-134 46 -373 21 -474 -8 -31 -20 -96 -26 -146 -36 -273 -146 -567 -245 -654
-45 -39 -91 -59 -182 -78 l-72 -15 -86 47 c-47 26 -100 59 -116 72 -71 60
-107 187 -168 590 -19 124 -19 138 -5 255 31 253 101 489 236 788 91 202 198
388 502 870 58 93 118 160 142 160 6 0 17 -7 24 -15z"/>
<path d="M11350 9424 c-47 -7 -144 -28 -215 -47 -111 -29 -149 -45 -253 -104
-369 -211 -747 -671 -933 -1133 -12 -30 -33 -81 -46 -113 -34 -81 -103 -438
-103 -535 -1 -42 -5 -122 -10 -177 -5 -55 -12 -138 -15 -185 -9 -135 -24 -252
-57 -445 -34 -205 -41 -358 -18 -420 10 -26 34 -54 72 -85 50 -40 71 -50 150
-68 134 -31 346 -24 553 18 187 38 447 131 561 200 45 28 86 50 91 50 5 0 26
-35 47 -77 117 -238 355 -574 525 -742 79 -77 247 -198 350 -250 93 -48 159
-171 196 -366 19 -101 19 -123 -1 -182 -35 -101 -194 -278 -317 -351 -147 -88
-338 -142 -501 -142 l-86 0 0 -385 0 -385 285 0 285 0 0 -1047 c0 -1039 6
-1255 36 -1442 36 -231 135 -421 308 -595 197 -198 466 -328 811 -392 85 -16
152 -19 450 -19 320 0 360 2 465 22 441 85 698 249 855 546 148 279 195 576
195 1240 l0 297 -379 0 -379 0 -5 -392 c-6 -414 -17 -552 -57 -681 -28 -91
-74 -153 -140 -191 -50 -28 -63 -31 -140 -31 -152 0 -227 62 -277 232 -16 53
-18 156 -21 1256 l-3 1197 606 0 605 0 0 385 0 385 -72 1 c-40 1 -82 3 -93 4
-101 13 -179 26 -193 33 -9 5 -46 17 -81 26 -263 72 -485 284 -631 601 -75
163 -86 249 -55 409 13 69 27 108 86 243 11 24 19 47 19 52 0 10 11 33 53 116
38 75 85 328 98 530 13 193 6 246 -57 480 -84 310 -181 572 -342 925 -160 351
-340 636 -527 834 -6 6 -69 78 -140 161 -72 82 -141 161 -155 175 -153 156
-352 301 -548 399 -160 80 -355 134 -584 161 -90 11 -167 19 -173 19 -5 -1
-48 -7 -95 -15z m1197 -2315 c134 -131 284 -461 333 -734 19 -104 19 -112 3
-187 -14 -65 -22 -83 -52 -111 -54 -51 -112 -70 -164 -55 -88 25 -335 212
-409 310 -188 250 -245 337 -274 421 -21 61 -22 72 -9 79 31 18 233 174 286
222 31 28 78 77 103 108 l47 58 36 -25 c20 -13 65 -52 100 -86z"/>
<path d="M0 5577 l0 -414 238 -6 c400 -9 464 -35 509 -212 17 -66 18 -173 18
-1850 0 -1892 1 -1860 -47 -1962 -12 -26 -36 -55 -57 -68 -71 -47 -137 -57
-408 -62 l-253 -5 0 -419 0 -419 1755 0 1755 0 0 419 0 419 -272 5 c-272 5
-330 11 -398 47 -128 65 -140 159 -140 1083 l0 607 701 0 c714 0 872 6 1154
41 944 117 1453 492 1594 1175 59 286 49 641 -25 913 -165 605 -660 952 -1529
1070 -328 45 -293 44 -2487 48 l-2108 4 0 -414z m3500 -481 c148 -24 241 -51
346 -101 155 -75 243 -183 300 -370 26 -85 27 -101 28 -300 1 -186 -2 -220
-21 -298 -57 -223 -184 -376 -376 -454 -186 -76 -394 -103 -784 -103 l-283 0
0 826 0 826 343 -5 c247 -4 371 -10 447 -21z"/>
<path d="M28790 5605 l0 -385 113 0 c136 0 269 -14 328 -35 67 -24 106 -68
132 -150 l22 -70 0 -1885 c0 -1793 -1 -1888 -18 -1951 -24 -87 -62 -132 -135
-160 -49 -19 -81 -23 -239 -27 l-183 -4 0 -389 0 -389 1340 0 1340 0 0 390 0
390 -73 0 c-191 0 -293 72 -326 228 -12 57 -14 286 -3 314 7 16 585 448 600
448 11 0 360 -555 418 -665 65 -122 89 -206 71 -244 -21 -45 -126 -81 -238
-81 l-49 0 0 -390 0 -390 1335 0 1335 0 0 389 0 388 -88 6 c-115 7 -240 40
-327 85 -141 73 -149 84 -714 986 -281 451 -513 823 -514 827 -1 4 140 118
313 253 346 270 409 309 571 350 97 25 251 46 334 46 l45 0 0 390 0 390 -1230
0 -1230 0 0 -389 0 -388 123 -5 c146 -6 189 -21 214 -72 14 -30 15 -41 4 -77
-7 -23 -29 -59 -49 -80 -20 -21 -235 -194 -477 -384 l-440 -347 -3 1731 -2
1731 -1150 0 -1150 0 0 -385z"/>
<path d="M8610 4413 c-801 -63 -1430 -433 -1778 -1045 -194 -343 -282 -750
-269 -1242 11 -387 77 -685 216 -970 310 -637 907 -1029 1716 -1128 172 -21
694 -18 865 5 462 62 819 199 1086 418 108 88 239 232 315 348 143 217 228
433 304 778 l5 23 -538 0 -539 0 -23 -88 c-82 -317 -260 -539 -506 -631 -185
-70 -459 -68 -636 4 -113 46 -236 146 -308 250 -121 176 -190 442 -190 735 l0
100 1362 0 1361 0 -6 228 c-14 513 -89 853 -264 1202 -296 589 -822 926 -1569
1005 -126 13 -476 18 -604 8z m509 -797 c91 -25 162 -67 236 -141 138 -138
204 -328 219 -632 l5 -103 -624 0 -625 0 0 59 c0 102 29 288 60 384 80 246
225 396 430 442 76 17 217 13 299 -9z"/>
<path d="M25940 4409 c-591 -55 -1088 -282 -1446 -661 -390 -414 -572 -953
-551 -1633 11 -320 64 -594 166 -845 268 -661 869 -1107 1651 -1224 174 -26
315 -36 525 -36 605 0 1066 116 1429 357 174 116 366 320 480 510 105 176 197
429 251 690 l7 33 -540 0 -541 0 -11 -57 c-62 -299 -251 -552 -485 -652 -92
-38 -168 -53 -306 -58 -287 -11 -482 70 -640 267 -134 167 -204 399 -216 718
l-6 152 1363 0 1363 0 -6 238 c-3 130 -13 293 -22 362 -70 550 -248 960 -554
1273 -324 333 -742 516 -1296 567 -129 12 -479 11 -615 -1z m511 -783 c178
-32 318 -142 402 -316 26 -52 55 -134 67 -181 18 -76 39 -269 40 -356 l0 -33
-625 0 -625 0 0 45 c0 76 20 235 40 323 91 388 352 580 701 518z"/>
<path d="M22535 4394 c-184 -28 -380 -109 -539 -221 -44 -32 -132 -109 -193
-170 l-113 -113 0 190 0 190 -1115 0 -1115 0 0 -389 0 -388 158 -6 c223 -8
286 -28 339 -105 52 -79 53 -90 53 -1165 0 -630 -4 -1014 -10 -1048 -34 -180
-120 -229 -400 -229 l-140 0 0 -390 0 -390 1475 0 1475 0 0 389 0 389 -232 4
c-212 4 -238 6 -290 27 -71 27 -112 73 -135 149 -17 53 -18 119 -18 857 0 866
2 901 55 1110 84 330 258 557 488 637 56 19 87 23 192 23 174 0 179 -4 87 -65
-99 -66 -178 -153 -221 -243 -43 -91 -56 -154 -56 -274 0 -182 50 -302 180
-434 70 -71 100 -94 170 -127 120 -58 223 -76 375 -69 226 11 372 74 521 222
81 80 98 103 142 195 59 122 78 194 94 344 21 199 -15 423 -93 585 -110 232
-301 397 -549 475 -171 54 -394 70 -585 40z"/>
</g>
</svg>
